<svg width="24" height="24" viewBox="0 0 24 24" fill="none" xmlns="http://www.w3.org/2000/svg">
<path fill-rule="evenodd" clip-rule="evenodd" d="M20 5H4C2.94803 5 2 5.89543 2 7V17C2 18.1046 2.94803 19 4 19H20C21.052 19 22 18.1046 22 17V7C22 5.89543 21.052 5 20 5ZM4 7.6C4 7.26863 4.26863 7 4.6 7H19.4C19.7314 7 20 7.26863 20 7.6V16.4C20 16.7314 19.7314 17 19.4 17H4.6C4.26863 17 4 16.7314 4 16.4V7.6Z" fill="#0D6E20"/>
<rect x="3" y="9" width="18" height="3" rx="1" fill="#0D6E20"/>
<rect x="16" y="14" width="3" height="2" rx="1" fill="#0D6E20"/>
</svg>
