<svg width="25" height="24" viewBox="0 0 25 24" fill="none" xmlns="http://www.w3.org/2000/svg">
<path d="M3.5 5L11.2721 11.045C11.9943 11.6067 13.0057 11.6067 13.7279 11.045L21.5 5M5.7 20H19.3C20.4201 20 20.9802 20 21.408 19.782C21.7843 19.5903 22.0903 19.2843 22.282 18.908C22.5 18.4802 22.5 17.9201 22.5 16.8V7.2C22.5 6.0799 22.5 5.51984 22.282 5.09202C22.0903 4.71569 21.7843 4.40973 21.408 4.21799C20.9802 4 20.4201 4 19.3 4H5.7C4.57989 4 4.01984 4 3.59202 4.21799C3.21569 4.40973 2.90973 4.71569 2.71799 5.09202C2.5 5.51984 2.5 6.07989 2.5 7.2V16.8C2.5 17.9201 2.5 18.4802 2.71799 18.908C2.90973 19.2843 3.21569 19.5903 3.59202 19.782C4.01984 20 4.5799 20 5.7 20Z" stroke="#00201E" stroke-width="2"/>
</svg>
