<svg width="25" height="24" viewBox="0 0 25 24" fill="none" xmlns="http://www.w3.org/2000/svg">
<path d="M11.5 5H13.5M21.5 9V15M3.5 9V15M9.7 22H15.3C16.4201 22 16.9802 22 17.408 21.782C17.7843 21.5903 18.0903 21.2843 18.282 20.908C18.5 20.4802 18.5 19.9201 18.5 18.8V5.2C18.5 4.07989 18.5 3.51984 18.282 3.09202C18.0903 2.71569 17.7843 2.40973 17.408 2.21799C16.9802 2 16.4201 2 15.3 2H9.7C8.57989 2 8.01984 2 7.59202 2.21799C7.21569 2.40973 6.90973 2.71569 6.71799 3.09202C6.5 3.51984 6.5 4.0799 6.5 5.2V18.8C6.5 19.9201 6.5 20.4802 6.71799 20.908C6.90973 21.2843 7.21569 21.5903 7.59202 21.782C8.01984 22 8.57989 22 9.7 22Z" stroke="#00201E" stroke-width="2" stroke-linecap="round"/>
</svg>
