<svg width="32" height="32" viewBox="0 0 32 32" fill="none" xmlns="http://www.w3.org/2000/svg">
<circle cx="16" cy="16" r="16" fill="#E1F7E0"/>
<path d="M10.264 10.264C9.912 10.616 9.912 11.1867 10.264 11.5386L14.7253 16L10.264 20.4613C9.912 20.8133 9.912 21.384 10.264 21.736C10.616 22.088 11.1867 22.088 11.5387 21.736L16 17.2746L20.4613 21.736C20.8133 22.088 21.384 22.088 21.736 21.736C22.088 21.384 22.088 20.8133 21.736 20.4613L17.2747 16L21.736 11.5387C22.088 11.1867 22.088 10.616 21.736 10.264C21.384 9.912 20.8133 9.912 20.4613 10.264L16 14.7253L11.5387 10.264C11.1867 9.912 10.616 9.912 10.264 10.264Z" fill="#0D6E20"/>
</svg>
