<svg width="49" height="48" viewBox="0 0 49 48" fill="none" xmlns="http://www.w3.org/2000/svg">
<path d="M14.4997 14C14.4997 15.1046 15.3951 16 16.4997 16C17.6043 16 18.4997 15.1046 18.4997 14H14.4997ZM18.4997 34C18.4997 32.8954 17.6043 32 16.4997 32C15.3951 32 14.4997 32.8954 14.4997 34H18.4997ZM18.6837 43.564L19.5917 41.782L19.5917 41.782L18.6837 43.564ZM16.9357 41.816L15.1537 42.7239H15.1537L16.9357 41.816ZM40.0637 41.816L41.8457 42.7239L40.0637 41.816ZM38.3157 43.564L37.4077 41.782L37.4077 41.782L38.3157 43.564ZM38.3157 4.43597L37.4077 6.21799V6.21799L38.3157 4.43597ZM40.0637 6.18404L38.2817 7.09202V7.09202L40.0637 6.18404ZM16.9357 6.18404L15.1537 5.27606V5.27606L16.9357 6.18404ZM18.6837 4.43597L17.7758 2.65396V2.65396L18.6837 4.43597ZM6.4997 22C5.39513 22 4.49969 22.8954 4.49969 24C4.49969 25.1046 5.39512 26 6.49969 26L6.4997 22ZM28.4997 26C29.6043 26 30.4997 25.1046 30.4997 24C30.4997 22.8954 29.6043 22 28.4997 22V26ZM11.9139 19.4142C12.695 18.6332 12.695 17.3668 11.9139 16.5858C11.1329 15.8047 9.86653 15.8047 9.08548 16.5858L11.9139 19.4142ZM6.76244 21.7373L5.34823 20.323H5.34823L6.76244 21.7373ZM6.76244 26.2627L5.34822 27.6769L5.34822 27.677L6.76244 26.2627ZM9.08548 31.4142C9.86653 32.1953 11.1329 32.1953 11.9139 31.4142C12.695 30.6332 12.695 29.3668 11.9139 28.5858L9.08548 31.4142ZM5.42601 23.382L7.32812 24L5.42601 23.382ZM5.42601 24.618L7.32812 24L5.42601 24.618ZM18.4997 14V10.4H14.4997V14H18.4997ZM22.8997 6H34.0997V2H22.8997V6ZM38.4997 10.4V37.6H42.4997V10.4H38.4997ZM34.0997 42H22.8997V46H34.0997V42ZM18.4997 37.6V34H14.4997V37.6H18.4997ZM22.8997 42C21.7466 42 21.002 41.9984 20.4354 41.9521C19.892 41.9078 19.6906 41.8324 19.5917 41.782L17.7758 45.346C18.5325 45.7316 19.3189 45.8743 20.1096 45.9389C20.877 46.0016 21.8126 46 22.8997 46V42ZM14.4997 37.6C14.4997 38.6871 14.4981 39.6227 14.5608 40.3901C14.6254 41.1807 14.7681 41.9672 15.1537 42.7239L18.7177 40.908C18.6673 40.8091 18.5919 40.6077 18.5475 40.0643C18.5013 39.4977 18.4997 38.7531 18.4997 37.6H14.4997ZM19.5917 41.782C19.2154 41.5903 18.9094 41.2843 18.7177 40.908L15.1537 42.7239C15.7289 43.8529 16.6468 44.7708 17.7758 45.346L19.5917 41.782ZM38.4997 37.6C38.4997 38.7531 38.4981 39.4977 38.4518 40.0643C38.4074 40.6077 38.3321 40.8091 38.2817 40.908L41.8457 42.7239C42.2313 41.9672 42.374 41.1807 42.4386 40.3901C42.5013 39.6227 42.4997 38.6871 42.4997 37.6H38.4997ZM34.0997 46C35.1868 46 36.1224 46.0016 36.8897 45.9389C37.6804 45.8743 38.4669 45.7316 39.2236 45.346L37.4077 41.782C37.3088 41.8324 37.1073 41.9078 36.564 41.9521C35.9973 41.9984 35.2528 42 34.0997 42V46ZM38.2817 40.908C38.09 41.2843 37.784 41.5903 37.4077 41.782L39.2236 45.346C40.3526 44.7708 41.2705 43.8529 41.8457 42.7239L38.2817 40.908ZM34.0997 6C35.2528 6 35.9973 6.00156 36.564 6.04785C37.1073 6.09225 37.3088 6.1676 37.4077 6.21799L39.2236 2.65396C38.4669 2.26837 37.6804 2.12574 36.8897 2.06114C36.1224 1.99844 35.1868 2 34.0997 2V6ZM42.4997 10.4C42.4997 9.3129 42.5013 8.37729 42.4386 7.60994C42.374 6.81925 42.2313 6.03282 41.8457 5.27606L38.2817 7.09202C38.3321 7.19091 38.4074 7.39235 38.4518 7.93567C38.4981 8.50235 38.4997 9.24689 38.4997 10.4H42.4997ZM37.4077 6.21799C37.784 6.40973 38.09 6.7157 38.2817 7.09202L41.8457 5.27606C41.2705 4.14708 40.3526 3.2292 39.2236 2.65396L37.4077 6.21799ZM18.4997 10.4C18.4997 9.24689 18.5013 8.50235 18.5475 7.93567C18.5919 7.39235 18.6673 7.19091 18.7177 7.09202L15.1537 5.27606C14.7681 6.03282 14.6254 6.81925 14.5608 7.60994C14.4981 8.37729 14.4997 9.3129 14.4997 10.4H18.4997ZM22.8997 2C21.8126 2 20.877 1.99844 20.1096 2.06114C19.3189 2.12574 18.5325 2.26837 17.7758 2.65396L19.5917 6.21799C19.6906 6.1676 19.892 6.09225 20.4354 6.04785C21.002 6.00156 21.7466 6 22.8997 6V2ZM18.7177 7.09202C18.9094 6.71569 19.2154 6.40973 19.5917 6.21799L17.7758 2.65396C16.6468 3.2292 15.7289 4.14708 15.1537 5.27606L18.7177 7.09202ZM6.49969 26L28.4997 26V22L6.4997 22L6.49969 26ZM9.08548 16.5858L5.34823 20.323L8.17665 23.1515L11.9139 19.4142L9.08548 16.5858ZM5.34822 27.677L9.08548 31.4142L11.9139 28.5858L8.17665 24.8485L5.34822 27.677ZM5.34823 20.323C4.97554 20.6957 4.60988 21.0592 4.32818 21.391C4.03131 21.7407 3.71217 22.1845 3.5239 22.7639L7.32812 24C7.28823 24.1228 7.24129 24.1402 7.37753 23.9797C7.52894 23.8014 7.7573 23.5708 8.17665 23.1515L5.34823 20.323ZM8.17665 24.8485C7.75731 24.4292 7.52895 24.1986 7.37754 24.0203C7.24129 23.8598 7.28823 23.8772 7.32812 24L3.5239 25.2361C3.71217 25.8155 4.03132 26.2593 4.32818 26.609C4.60988 26.9408 4.97554 27.3043 5.34822 27.6769L8.17665 24.8485ZM3.5239 22.7639C3.26287 23.5673 3.26287 24.4327 3.5239 25.2361L7.32812 24V24L3.5239 22.7639Z" fill="#00201E"/>
</svg>
