<svg width="24" height="24" viewBox="0 0 24 24" fill="none" xmlns="http://www.w3.org/2000/svg">
<path d="M2.53655 8.97535C2.14051 9.36028 2.13149 9.99338 2.51642 10.3894C2.90135 10.7855 3.53445 10.7945 3.93049 10.4096L2.53655 8.97535ZM10.0696 10.4096C10.4656 10.7945 11.0987 10.7855 11.4837 10.3894C11.8686 9.99338 11.8596 9.36028 11.4635 8.97535L10.0696 10.4096ZM12.5365 18.9754C12.1405 19.3603 12.1315 19.9934 12.5164 20.3894C12.9013 20.7855 13.5344 20.7945 13.9305 20.4096L12.5365 18.9754ZM20.0696 20.4096C20.4656 20.7945 21.0987 20.7855 21.4836 20.3894C21.8686 19.9934 21.8596 19.3603 21.4635 18.9754L20.0696 20.4096ZM14.5735 4.42524C14.0505 4.24759 13.4826 4.5275 13.3049 5.05043C13.1273 5.57336 13.4072 6.1413 13.9301 6.31895L14.5735 4.42524ZM17.4088 9.40274C17.6479 9.90057 18.2453 10.1103 18.7432 9.87119C19.241 9.63208 19.4508 9.03466 19.2116 8.53682L17.4088 9.40274ZM9.4268 19.5749C9.94973 19.7525 10.5177 19.4726 10.6953 18.9497C10.873 18.4268 10.5931 17.8588 10.0701 17.6812L9.4268 19.5749ZM6.64563 14.7073C6.39647 14.2145 5.79492 14.0169 5.30203 14.266C4.80915 14.5152 4.61157 15.1168 4.86073 15.6096L6.64563 14.7073ZM15.5021 7.90911C14.9792 7.73146 14.4112 8.01137 14.2336 8.5343C14.0559 9.05723 14.3358 9.62517 14.8588 9.80282L15.5021 7.90911ZM18.021 9.82097L17.6993 10.7678L18.021 9.82097ZM19.2895 9.19578L20.2364 9.51744L19.2895 9.19578ZM21.0405 7.15031C21.2182 6.62738 20.9383 6.05944 20.4154 5.88179C19.8924 5.70414 19.3245 5.98405 19.1468 6.50698L21.0405 7.15031ZM8.49804 16.091C9.02097 16.2686 9.5889 15.9887 9.76656 15.4658C9.94421 14.9429 9.6643 14.3749 9.14137 14.1973L8.49804 16.091ZM5.97914 14.1791L5.65748 15.126L5.65748 15.126L5.97914 14.1791ZM4.71062 14.8043L3.76377 14.4827L4.71062 14.8043ZM2.95961 16.8498C2.78195 17.3727 3.06186 17.9407 3.58479 18.1183C4.10772 18.296 4.67566 18.0161 4.85331 17.4931L2.95961 16.8498ZM3.93049 10.4096C5.62259 8.76496 8.37749 8.76496 10.0696 10.4096L11.4635 8.97535C8.99525 6.57636 5.00484 6.57636 2.53655 8.97535L3.93049 10.4096ZM8.52643 5.42543C8.52643 6.18603 7.88391 6.85087 7.03094 6.85087V8.85087C8.93441 8.85087 10.5264 7.3439 10.5264 5.42543H8.52643ZM7.03094 6.85087C6.17798 6.85087 5.53546 6.18603 5.53546 5.42543H3.53546C3.53546 7.3439 5.12747 8.85087 7.03094 8.85087V6.85087ZM5.53546 5.42543C5.53546 4.66484 6.17798 4 7.03094 4V2C5.12747 2 3.53546 3.50697 3.53546 5.42543H5.53546ZM7.03094 4C7.88391 4 8.52643 4.66484 8.52643 5.42543H10.5264C10.5264 3.50697 8.93441 2 7.03094 2V4ZM13.9305 20.4096C15.6226 18.765 18.3775 18.765 20.0696 20.4096L21.4635 18.9754C18.9952 16.5764 15.0048 16.5764 12.5365 18.9754L13.9305 20.4096ZM18.5264 15.4254C18.5264 16.186 17.8839 16.8509 17.0309 16.8509V18.8509C18.9344 18.8509 20.5264 17.3439 20.5264 15.4254H18.5264ZM17.0309 16.8509C16.178 16.8509 15.5354 16.186 15.5354 15.4254H13.5354C13.5354 17.3439 15.1275 18.8509 17.0309 18.8509V16.8509ZM15.5354 15.4254C15.5354 14.6648 16.178 14 17.0309 14V12C15.1275 12 13.5354 13.507 13.5354 15.4254H15.5354ZM17.0309 14C17.8839 14 18.5264 14.6648 18.5264 15.4254H20.5264C20.5264 13.507 18.9344 12 17.0309 12V14ZM13.9301 6.31895C15.52 6.85905 16.7344 7.99867 17.4088 9.40274L19.2116 8.53682C18.3142 6.66824 16.6928 5.14522 14.5735 4.42524L13.9301 6.31895ZM10.0701 17.6812C8.52186 17.1552 7.32982 16.0608 6.64563 14.7073L4.86073 15.6096C5.77149 17.4113 7.3632 18.8738 9.4268 19.5749L10.0701 17.6812ZM14.8588 9.80282L17.6993 10.7678L18.3427 8.87411L15.5021 7.90911L14.8588 9.80282ZM20.2364 9.51744L21.0405 7.15031L19.1468 6.50698L18.3427 8.87411L20.2364 9.51744ZM17.6993 10.7678C18.7452 11.1231 19.8811 10.5633 20.2364 9.51744L18.3427 8.87411V8.87411L17.6993 10.7678ZM9.14137 14.1973L6.30081 13.2323L5.65748 15.126L8.49804 16.091L9.14137 14.1973ZM3.76377 14.4827L2.95961 16.8498L4.85331 17.4931L5.65748 15.126L3.76377 14.4827ZM6.30081 13.2323C5.25494 12.877 4.11907 13.4368 3.76377 14.4827L5.65748 15.126L6.30081 13.2323Z" fill="#00201E"/>
</svg>
