<svg width="16" height="16" viewBox="0 0 16 16" fill="none" xmlns="http://www.w3.org/2000/svg"><path d="M6.282 2.034a1.944 1.944 0 0 1 3.436 0l6.013 10.863c.764 1.379-.19 3.103-1.718 3.103H1.987C.46 16-.495 14.276.269 12.897L6.282 2.034Z" fill="#FF483D"/><path fill-rule="evenodd" clip-rule="evenodd" d="M7.984 5a.994.994 0 0 1 .994.995L9 9.989a.994.994 0 0 1-.984 1.004.994.994 0 0 1-.994-.995L7 6.003A.994.994 0 0 1 7.984 5Zm.005 6.992c.546 0 .989.447.989.999v.01a.994.994 0 0 1-.99.999.994.994 0 0 1-.988-.999v-.01c0-.552.443-.999.989-.999Z" fill="#fff"/></svg>