<svg width="32" height="32" viewBox="0 0 32 32" fill="none" xmlns="http://www.w3.org/2000/svg">
<g clip-path="url(#clip0_29_11176)">
<circle cx="16" cy="16" r="16" fill="#E1F7E0"/>
<path d="M22.2929 23.7071C22.6834 24.0976 23.3166 24.0976 23.7071 23.7071C24.0976 23.3166 24.0976 22.6834 23.7071 22.2929L22.2929 23.7071ZM21.1765 15.5882C21.1765 18.6745 18.6745 21.1765 15.5882 21.1765V23.1765C19.7791 23.1765 23.1765 19.7791 23.1765 15.5882H21.1765ZM15.5882 21.1765C12.5019 21.1765 10 18.6745 10 15.5882H8C8 19.7791 11.3974 23.1765 15.5882 23.1765V21.1765ZM10 15.5882C10 12.5019 12.5019 10 15.5882 10V8C11.3974 8 8 11.3974 8 15.5882H10ZM15.5882 10C18.6745 10 21.1765 12.5019 21.1765 15.5882H23.1765C23.1765 11.3974 19.7791 8 15.5882 8V10ZM19.587 21.0012L22.2929 23.7071L23.7071 22.2929L21.0012 19.587L19.587 21.0012Z" fill="#0D6E20"/>
</g>
<defs>
<clipPath id="clip0_29_11176">
<rect width="32" height="32" fill="white"/>
</clipPath>
</defs>
</svg>
