<svg width="24" height="24" viewBox="0 0 24 24" fill="none" xmlns="http://www.w3.org/2000/svg">
<path d="M3.99225 16.1122L4.88144 15.6546L3.99225 16.1122ZM3.25656 20.3228L2.32144 19.9685L2.32144 19.9685L3.25656 20.3228ZM4.15021 17.9642L3.21508 17.6099H3.21508L4.15021 17.9642ZM16.2378 13.1098L15.5307 13.817L15.5323 13.8185L16.2378 13.1098ZM16.1505 13.0226L15.4424 13.7286L15.4434 13.7297L16.1505 13.0226ZM16.2892 13.161L15.5837 13.8697L15.5845 13.8705L16.2892 13.161ZM16.8139 13.8078L17.7062 13.3565L17.7062 13.3565L16.8139 13.8078ZM16.8139 15.3687L15.9215 14.9174H15.9215L16.8139 15.3687ZM16.2892 16.0155L15.5844 15.3061L15.5837 15.3068L16.2892 16.0155ZM16.2378 16.0667L15.5323 15.358L15.5304 15.3599L16.2378 16.0667ZM16.1262 16.1784L15.4188 15.4715L15.4181 15.4723L16.1262 16.1784ZM15.469 16.721L15.9587 17.5929L15.9587 17.5929L15.469 16.721ZM14.3963 17L14.3993 16H14.3993L14.3963 17ZM13.6426 16.8703L13.9166 15.9085L13.9163 15.9084L13.6426 16.8703ZM13.607 16.8601L13.8807 15.8983L13.8801 15.8981L13.607 16.8601ZM9.53506 14.4649L10.2422 13.7578H10.2422L9.53506 14.4649ZM7.13985 10.393L8.10186 10.1199L8.10168 10.1193L7.13985 10.393ZM7.12973 10.3574L8.09156 10.0837L8.09147 10.0834L7.12973 10.3574ZM7.00001 9.60372L8 9.60075V9.60074L7.00001 9.60372ZM7.27897 8.53102L6.40711 8.04125L6.40711 8.04126L7.27897 8.53102ZM7.82159 7.87382L8.52771 8.58192L8.52846 8.58117L7.82159 7.87382ZM7.98447 7.71079L8.69315 8.41632L8.69392 8.41555L7.98447 7.71079ZM7.93328 7.76221L8.64014 8.46956L8.64196 8.46774L7.93328 7.76221ZM8.63128 7.18614L8.17993 6.29379L8.17993 6.29379L8.63128 7.18614ZM10.1922 7.18614L9.7408 8.07849H9.74081L10.1922 7.18614ZM10.839 7.71079L10.1295 8.41555L10.1303 8.41632L10.839 7.71079ZM10.8902 7.76221L10.1815 8.46774L10.183 8.46932L10.8902 7.76221ZM10.9774 7.84949L10.2703 8.5566L10.2714 8.55764L10.9774 7.84949ZM11.0113 7.88329L10.3053 8.59144L10.3058 8.59194L11.0113 7.88329ZM11.3729 8.29812L12.2113 7.75303L12.2113 7.75302L11.3729 8.29812ZM11.1226 10.4858L10.4037 9.79064C10.1032 10.1014 10.0364 10.5701 10.2382 10.9525L11.1226 10.4858ZM11.3729 10.1832L10.5345 9.63809L10.5345 9.63809L11.3729 10.1832ZM13.8168 12.6271L13.2717 11.7887L13.2717 11.7887L13.8168 12.6271ZM13.5142 12.8774L13.0475 13.7618C13.4299 13.9636 13.8986 13.8968 14.2094 13.5963L13.5142 12.8774ZM15.7019 12.6271L16.247 11.7887L16.247 11.7887L15.7019 12.6271ZM16.1167 12.9887L15.4081 13.6942L15.4086 13.6947L16.1167 12.9887ZM12.1388 11.8612L12.8459 11.1541V11.1541L12.1388 11.8612ZM20 12C20 16.4183 16.4183 20 12 20V22C17.5228 22 22 17.5228 22 12H20ZM4 12C4 7.58172 7.58172 4 12 4V2C6.47715 2 2 6.47715 2 12H4ZM12 4C16.4183 4 20 7.58172 20 12H22C22 6.47715 17.5228 2 12 2V4ZM3.72413 22H12V20H3.72413V22ZM4.88144 15.6546C4.31832 14.5603 4 13.3188 4 12H2C2 13.6445 2.39771 15.1989 3.10306 16.5697L4.88144 15.6546ZM4.19169 20.6772L5.08534 18.3186L3.21508 17.6099L2.32144 19.9685L4.19169 20.6772ZM3.10306 16.5697C3.29872 16.95 3.32331 17.3243 3.21508 17.6099L5.08534 18.3186C5.43555 17.3942 5.27781 16.4249 4.88144 15.6546L3.10306 16.5697ZM3.72413 20C4.07396 20 4.31564 20.35 4.19169 20.6772L2.32144 19.9685C1.9496 20.9499 2.67465 22 3.72413 22V20ZM16.9449 12.4027L16.8576 12.3155L15.4434 13.7297L15.5307 13.817L16.9449 12.4027ZM16.9947 12.4524L16.9433 12.4012L15.5323 13.8185L15.5837 13.8697L16.9947 12.4524ZM17.7062 13.3565C17.4931 12.9351 17.1544 12.611 16.994 12.4516L15.5845 13.8705C15.6794 13.9648 15.7509 14.0365 15.8137 14.1095C15.8753 14.1812 15.9066 14.2297 15.9215 14.2592L17.7062 13.3565ZM17.7062 15.8201C18.0979 15.0456 18.0979 14.131 17.7062 13.3565L15.9215 14.2592C16.0262 14.4661 16.0262 14.7105 15.9215 14.9174L17.7062 15.8201ZM16.994 16.725C17.1544 16.5656 17.4931 16.2415 17.7062 15.8201L15.9215 14.9174C15.9066 14.9469 15.8753 14.9954 15.8137 15.067C15.7509 15.1401 15.6794 15.2118 15.5844 15.3061L16.994 16.725ZM16.9433 16.7754L16.9947 16.7242L15.5837 15.3068L15.5323 15.358L16.9433 16.7754ZM15.9587 17.5929C16.3608 17.367 16.6476 17.0717 16.8343 16.8845L15.4181 15.4723C15.2098 15.6812 15.1051 15.7785 14.9792 15.8492L15.9587 17.5929ZM14.3933 18C14.9149 18.0015 15.504 17.8483 15.9587 17.5929L14.9792 15.8492C14.8254 15.9356 14.5757 16.0005 14.3993 16L14.3933 18ZM13.3687 17.832C13.5967 17.897 13.9407 17.9986 14.3933 18L14.3993 16C14.2491 15.9995 14.1404 15.9723 13.9166 15.9085L13.3687 17.832ZM13.3334 17.822L13.369 17.8321L13.9163 15.9084L13.8807 15.8983L13.3334 17.822ZM8.82795 15.172C10.1242 16.4683 11.6823 17.3534 13.334 17.8221L13.8801 15.8981C12.5481 15.5201 11.2911 14.8068 10.2422 13.7578L8.82795 15.172ZM6.17785 10.666C6.64664 12.3177 7.53167 13.8758 8.82795 15.172L10.2422 13.7578C9.19321 12.7089 8.47992 11.4519 8.10186 10.1199L6.17785 10.666ZM6.1679 10.631L6.17803 10.6666L8.10168 10.1193L8.09156 10.0837L6.1679 10.631ZM6.00001 9.60669C6.00136 10.0593 6.10302 10.4033 6.16799 10.6313L8.09147 10.0834C8.02771 9.8596 8.00045 9.75094 8 9.60075L6.00001 9.60669ZM6.40711 8.04126C6.15166 8.496 5.99846 9.08512 6.00001 9.6067L8 9.60074C7.99948 9.42427 8.06439 9.17464 8.15083 9.02078L6.40711 8.04126ZM7.11548 7.16572C6.92832 7.35235 6.63297 7.63919 6.40711 8.04125L8.15083 9.02078C8.22153 8.89491 8.31882 8.79021 8.52771 8.58192L7.11548 7.16572ZM7.27579 7.00526L7.2246 7.05668L8.64196 8.46774L8.69315 8.41632L7.27579 7.00526ZM8.17993 6.29379C7.75852 6.50694 7.4344 6.8456 7.27503 7.00602L8.69392 8.41555C8.78823 8.32061 8.85995 8.2491 8.93295 8.18634C9.00461 8.12475 9.05309 8.09343 9.08263 8.07849L8.17993 6.29379ZM10.6435 6.29379C9.86902 5.90207 8.9544 5.90207 8.17993 6.29379L9.08262 8.07849C9.28954 7.97384 9.53389 7.97384 9.7408 8.07849L10.6435 6.29379ZM11.5484 7.00603C11.389 6.8456 11.0649 6.50694 10.6435 6.29379L9.74081 8.07849C9.77034 8.09343 9.81882 8.12475 9.89048 8.18634C9.96348 8.2491 10.0352 8.32061 10.1295 8.41555L11.5484 7.00603ZM11.5988 7.05668L11.5476 7.00526L10.1303 8.41632L10.1815 8.46774L11.5988 7.05668ZM11.6845 7.14238L11.5973 7.0551L10.183 8.46932L10.2703 8.5566L11.6845 7.14238ZM11.7174 7.17514L11.6835 7.14134L10.2714 8.55764L10.3053 8.59144L11.7174 7.17514ZM12.2113 7.75302C12.0425 7.49349 11.823 7.28026 11.7169 7.17463L10.3058 8.59194C10.3682 8.65409 10.4151 8.70113 10.4578 8.74821C10.4998 8.79463 10.5229 8.82529 10.5345 8.84321L12.2113 7.75302ZM11.8414 11.1809C11.9452 11.0736 12.088 10.9179 12.2113 10.7283L10.5345 9.63809C10.516 9.66665 10.478 9.71386 10.4037 9.79064L11.8414 11.1809ZM12.2113 10.7283C12.7994 9.82371 12.7994 8.65758 12.2113 7.75303L10.5345 8.84321C10.6916 9.08487 10.6916 9.39642 10.5345 9.63809L12.2113 10.7283ZM13.2717 11.7887C13.0821 11.912 12.9264 12.0548 12.8191 12.1586L14.2094 13.5963C14.2861 13.522 14.3333 13.4841 14.3619 13.4655L13.2717 11.7887ZM16.247 11.7887C15.3424 11.2006 14.1763 11.2006 13.2717 11.7887L14.3619 13.4655C14.6036 13.3084 14.9151 13.3084 15.1568 13.4655L16.247 11.7887ZM16.8254 12.2831C16.7197 12.177 16.5065 11.9575 16.247 11.7887L15.1568 13.4655C15.1747 13.4771 15.2054 13.5002 15.2518 13.5422C15.2989 13.5849 15.3459 13.6318 15.4081 13.6942L16.8254 12.2831ZM16.8587 12.3165L16.8249 12.2826L15.4086 13.6947L15.4424 13.7286L16.8587 12.3165ZM13.9809 11.993C13.5746 11.7786 13.1914 11.4997 12.8459 11.1541L11.4317 12.5683C11.9204 13.057 12.466 13.455 13.0475 13.7618L13.9809 11.993ZM12.8459 11.1541C12.5003 10.8086 12.2214 10.4254 12.007 10.0191L10.2382 10.9525C10.545 11.534 10.943 12.0796 11.4317 12.5683L12.8459 11.1541ZM16.8335 16.8853L16.9451 16.7736L15.5304 15.3599L15.4188 15.4715L16.8335 16.8853ZM7.22641 7.05486L7.11473 7.16647L8.52846 8.58117L8.64014 8.46956L7.22641 7.05486Z" fill="#00201E"/>
</svg>
