<svg width="68" height="80" viewBox="0 0 68 80" fill="none" xmlns="http://www.w3.org/2000/svg">
<path d="M18.3324 1.87171C23.5372 -1.08277 30.6938 -0.646485 38.5928 3.94597C54.498 13.1309 67.3875 35.4426 67.3875 53.8048C67.3875 62.9897 64.1651 69.4191 58.968 72.4272C56.8019 73.6825 51.3139 76.8359 49.1325 78.0836C43.9277 81.084 36.7405 80.6477 28.7956 76.0629C12.898 66.878 0.00856668 44.5586 0.00856668 26.1964C0.00856668 17.0115 3.21563 10.6127 8.42806 7.58932C10.5635 6.3264 16.1281 3.12699 18.3324 1.87171Z" fill="#FF483D"/>
<path opacity="0.15" d="M18.3324 1.87171C23.5372 -1.08277 30.6938 -0.646485 38.5928 3.94597C54.498 13.1309 67.3875 35.4426 67.3875 53.8048C67.3875 62.9897 64.1651 69.4191 58.968 72.4272C56.8019 73.6825 51.3139 76.8359 49.1325 78.0836C43.9277 81.084 36.7405 80.6477 28.7956 76.0629C12.898 66.878 0.00856668 44.5586 0.00856668 26.1964C0.00856668 17.0115 3.21563 10.6127 8.42806 7.58932C10.5635 6.3264 16.1281 3.12699 18.3324 1.87171Z" fill="#00201E"/>
<path d="M8.43444 54.572C-2.81 35.096 -2.81149 14.0456 8.4311 7.55471C19.6737 1.06378 37.903 11.5902 49.1475 31.0662C60.3919 50.5422 60.3934 71.5925 49.1508 78.0835C37.9082 84.5744 19.6789 74.0479 8.43444 54.572Z" fill="#FF483D"/>
<path d="M31.3902 24.1679L44.9992 63.4487C46.4152 67.5436 44.5093 69.1204 40.7588 66.9543L16.8704 53.1769C15.0724 52.1333 13.7604 50.4205 13.2212 48.4126C12.6819 46.4048 12.9592 44.2652 13.9925 42.4612L24.8766 23.5479C27.0427 19.7974 29.9742 20.0729 31.3902 24.1679Z" fill="white"/>
<path d="M27.3406 47.651L29.4149 48.8451C29.4829 48.9024 29.5665 48.938 29.655 48.9472C29.7434 48.9564 29.8326 48.9389 29.911 48.8968C29.9893 48.8547 30.0533 48.7901 30.0945 48.7113C30.1356 48.6324 30.1522 48.5431 30.142 48.4547L30.9993 32.9092C30.9994 32.6746 30.9406 32.4438 30.8282 32.2378C30.7159 32.0319 30.5536 31.8574 30.3563 31.7305L26.4298 29.4343C26.0471 29.22 25.7639 29.4343 25.7868 29.8323L26.6288 46.4417C26.6494 46.6837 26.724 46.918 26.8472 47.1273C26.9704 47.3366 27.139 47.5156 27.3406 47.651Z" fill="#00201E"/>
<path d="M28.374 55.9939C29.6981 56.7593 30.4941 55.7643 30.4941 54.3942C30.4869 53.5996 30.2909 52.818 29.9223 52.114C29.5537 51.41 29.023 50.8037 28.374 50.3452C27.0498 49.5798 26.2614 50.5671 26.2614 51.9449C26.2672 52.739 26.4617 53.5203 26.829 54.2243C27.1964 54.9284 27.7259 55.5349 28.374 55.9939Z" fill="#00201E"/>
</svg>
