<svg width="181" height="181" viewBox="0 0 181 181" fill="none" xmlns="http://www.w3.org/2000/svg">
<path d="M174.179 137.75L100.419 180.34L17.3594 132.27L91.1194 89.6899L174.179 137.75Z" fill="#FF483D"/>
<path opacity="0.5" d="M174.179 137.75L100.419 180.34L17.3594 132.27L91.1194 89.6899L174.179 137.75Z" fill="#00201E"/>
<path d="M91.1194 31.96V89.69L17.3594 132.27V74.55L91.1194 31.96Z" fill="#FF483D"/>
<path opacity="0.23" d="M91.1194 31.96V89.69L17.3594 132.27V74.55L91.1194 31.96Z" fill="#00201E"/>
<path d="M100.419 122.61V180.34L17.3594 132.27V74.5498L100.419 122.61Z" fill="#FF483D"/>
<path opacity="0.38" d="M100.419 122.61V180.34L17.3594 132.27V74.5498L100.419 122.61Z" fill="#00201E"/>
<path d="M174.179 80.02V137.75L91.1191 89.69V31.96L174.179 80.02Z" fill="#FF483D"/>
<path opacity="0.4" d="M174.179 80.02V137.75L91.1191 89.69V31.96L174.179 80.02Z" fill="#00201E"/>
<path d="M174.18 137.75V80.02L100.42 122.61V180.34L174.18 137.75Z" fill="#FF483D"/>
<path opacity="0.23" d="M174.18 137.75V80.02L100.42 122.61V180.34L174.18 137.75Z" fill="#00201E"/>
<path d="M91.1191 31.96L91.2191 0L174.079 48.12L174.179 80.02L91.1191 31.96Z" fill="#FF483D"/>
<path opacity="0.2" d="M91.1191 31.96L91.2191 0L174.079 48.12L174.179 80.02L91.1191 31.96Z" fill="#00201E"/>
<path d="M100.42 122.61L107.34 94.6502L180.43 52.4502L174.18 80.0202L100.42 122.61Z" fill="#FF483D"/>
<path opacity="0.3" d="M100.42 122.61L107.34 94.6502L180.43 52.4502L174.18 80.0202L100.42 122.61Z" fill="#00201E"/>
<path d="M17.3605 74.5497L8.56055 45.5497L82.3205 2.96973L91.1205 31.9597L17.3605 74.5497Z" fill="#FF483D"/>
<path opacity="0.1" d="M17.3605 74.5497L8.56055 45.5497L82.3205 2.96973L91.1205 31.9597L17.3605 74.5497Z" fill="#00201E"/>
<path d="M17.36 74.5501L0 50.5801L83.07 98.6401L100.42 122.61L17.36 74.5501Z" fill="#FF483D"/>
<path opacity="0.45" d="M17.36 74.5501L0 50.5801L83.07 98.6401L100.42 122.61L17.36 74.5501Z" fill="#00201E"/>
<path d="M122.14 163.17C122.019 163.17 121.904 163.123 121.818 163.039C121.732 162.955 121.682 162.84 121.68 162.72V152.56C121.682 152.439 121.732 152.323 121.817 152.238C121.903 152.152 122.018 152.103 122.14 152.1C122.26 152.103 122.374 152.152 122.459 152.238C122.543 152.324 122.59 152.44 122.59 152.56V162.72C122.59 162.839 122.542 162.954 122.458 163.038C122.373 163.123 122.259 163.17 122.14 163.17Z" fill="white"/>
<path d="M120.811 156.08C120.751 156.089 120.69 156.089 120.631 156.08C120.521 156.03 120.436 155.939 120.391 155.828C120.346 155.716 120.346 155.592 120.391 155.48L122.011 151.75L123.811 153.83C123.875 153.923 123.903 154.037 123.889 154.149C123.875 154.261 123.819 154.365 123.734 154.439C123.649 154.513 123.539 154.553 123.426 154.552C123.312 154.55 123.204 154.507 123.121 154.43L122.271 153.43L121.271 155.83C121.227 155.913 121.16 155.98 121.079 156.025C120.997 156.069 120.903 156.089 120.811 156.08Z" fill="white"/>
<path d="M126.331 160.78C126.211 160.777 126.096 160.728 126.012 160.642C125.928 160.556 125.881 160.44 125.881 160.32V150.17C125.881 150.051 125.928 149.936 126.013 149.852C126.097 149.768 126.212 149.72 126.331 149.72C126.45 149.72 126.565 149.768 126.649 149.852C126.733 149.936 126.781 150.051 126.781 150.17V160.31C126.782 160.371 126.772 160.431 126.75 160.487C126.728 160.543 126.695 160.595 126.653 160.638C126.611 160.682 126.561 160.717 126.506 160.741C126.451 160.766 126.391 160.779 126.331 160.78Z" fill="white"/>
<path d="M125 153.69C124.94 153.699 124.879 153.699 124.82 153.69C124.765 153.666 124.715 153.632 124.674 153.588C124.632 153.545 124.6 153.494 124.579 153.438C124.557 153.382 124.547 153.323 124.549 153.263C124.551 153.203 124.565 153.144 124.59 153.09L126.2 149.31L128 151.38C128.083 151.466 128.129 151.581 128.129 151.7C128.129 151.82 128.083 151.934 128 152.02C127.958 152.062 127.908 152.096 127.853 152.119C127.798 152.142 127.739 152.154 127.68 152.154C127.62 152.154 127.561 152.142 127.506 152.119C127.451 152.096 127.401 152.062 127.36 152.02L126.51 151.02L125.51 153.42C125.468 153.516 125.395 153.596 125.302 153.645C125.209 153.694 125.103 153.71 125 153.69Z" fill="white"/>
<path d="M110.048 170.06C109.878 170.063 109.709 170.021 109.559 169.94C109.378 169.824 109.231 169.662 109.135 169.47C109.038 169.278 108.994 169.064 109.009 168.85V167.6C109.011 167.48 109.061 167.365 109.147 167.281C109.233 167.197 109.348 167.15 109.469 167.15C109.588 167.15 109.702 167.197 109.787 167.282C109.871 167.366 109.919 167.481 109.919 167.6V168.85C109.919 169.03 109.919 169.13 110.009 169.15C110.099 169.17 110.148 169.15 110.298 169.07C110.58 168.81 110.802 168.492 110.948 168.138C111.095 167.784 111.163 167.403 111.149 167.02V161.82C111.149 161.701 111.196 161.586 111.28 161.502C111.365 161.417 111.479 161.37 111.598 161.37C111.718 161.37 111.832 161.417 111.917 161.502C112.001 161.586 112.048 161.701 112.048 161.82V167.02C112.071 167.56 111.966 168.097 111.742 168.589C111.517 169.081 111.181 169.513 110.759 169.85C110.545 169.982 110.3 170.054 110.048 170.06Z" fill="white"/>
<path d="M105.279 165.87V165.09C105.398 163.087 105.984 161.14 106.989 159.404C107.994 157.667 109.392 156.19 111.069 155.09C112.709 154.15 114.269 154.01 115.469 154.71C116.109 155.149 116.62 155.752 116.947 156.455C117.274 157.159 117.406 157.938 117.329 158.71V158.97L105.279 165.87ZM113.789 155.13C112.989 155.167 112.211 155.408 111.529 155.83C110.092 156.776 108.874 158.02 107.96 159.478C107.045 160.936 106.455 162.574 106.229 164.28L116.399 158.4C116.443 157.821 116.336 157.24 116.089 156.715C115.842 156.189 115.463 155.736 114.989 155.4C114.62 155.206 114.206 155.113 113.789 155.13Z" fill="white"/>
</svg>
