<svg width="49" height="48" viewBox="0 0 49 48" fill="none" xmlns="http://www.w3.org/2000/svg">
<path d="M16.5 29.0703C11.7176 30.4535 8.5 33.0389 8.5 36C8.5 40.4183 15.6634 44 24.5 44C33.3366 44 40.5 40.4183 40.5 36C40.5 33.0389 37.2824 30.4535 32.5 29.0703M36.5 16.8C36.5 23.8692 27.5 36 24.5 36C21.5 36 12.5 23.8692 12.5 16.8C12.5 9.73075 17.8726 4 24.5 4C31.1274 4 36.5 9.73075 36.5 16.8ZM28.5 16C28.5 18.2091 26.7091 20 24.5 20C22.2909 20 20.5 18.2091 20.5 16C20.5 13.7909 22.2909 12 24.5 12C26.7091 12 28.5 13.7909 28.5 16Z" stroke="#0D6E20" stroke-width="4"/>
</svg>
