<svg width="24" height="24" viewBox="0 0 24 24" fill="none" xmlns="http://www.w3.org/2000/svg">
<path fill-rule="evenodd" clip-rule="evenodd" d="M20.0952 5H3.90476C2.85279 5 2 5.89543 2 7V17C2 18.1046 2.85279 19 3.90476 19H20.0952C21.1472 19 22 18.1046 22 17V7C22 5.89543 21.1472 5 20.0952 5ZM3.90476 8C3.90476 7.44772 4.35248 7 4.90476 7H19.0952C19.6475 7 20.0952 7.44772 20.0952 8V16C20.0952 16.5523 19.6475 17 19.0952 17H4.90476C4.35248 17 3.90476 16.5523 3.90476 16V8Z" fill="#0D6E20"/>
<circle cx="12" cy="12" r="3" fill="#0D6E20"/>
<rect x="5" y="8" width="3" height="2" rx="1" fill="#0D6E20"/>
<rect x="16" y="14" width="3" height="2" rx="1" fill="#0D6E20"/>
</svg>
