<svg xmlns="http://www.w3.org/2000/svg" width="40" height="18" viewBox="0 0 40 18" fill="none"><path d="M0 6.4c0-2.24 0-3.36.436-4.216A4 4 0 0 1 2.184.436C3.04 0 4.16 0 6.4 0h26.548c2.24 0 3.36 0 3.913.454a2 2 0 0 1 .73 1.61c-.022.715-.76 1.558-2.235 3.243l-.773.883c-.585.67-.878 1.005-1.087 1.384a4 4 0 0 0-.403 1.073C33 9.07 33 9.515 33 10.404v1.194c0 2.242 0 3.362-.436 4.218a4 4 0 0 1-1.748 1.748C29.96 18 28.84 18 26.6 18H6.4c-2.24 0-3.36 0-4.216-.436a4 4 0 0 1-1.748-1.748C0 14.96 0 13.84 0 11.6V6.4Z" fill="#FF483D"/></svg>