<svg width="38" height="19" viewBox="0 0 38 19" fill="none" xmlns="http://www.w3.org/2000/svg"><path d="M38 12.1c0 2.24 0 3.36-.436 4.216a4 4 0 0 1-1.748 1.748c-.856.436-1.976.436-4.216.436H5.052c-2.24 0-3.36 0-3.913-.454a2 2 0 0 1-.73-1.61c.022-.715.76-1.558 2.235-3.243l.772-.883c.586-.67.88-1.005 1.088-1.384a4 4 0 0 0 .403-1.073C5 9.43 5 8.985 5 8.096V6.902c0-2.242 0-3.362.436-4.218A4 4 0 0 1 7.184.936C8.04.5 9.16.5 11.4.5h20.2c2.24 0 3.36 0 4.216.436a4 4 0 0 1 1.748 1.748C38 3.54 38 4.66 38 6.9v5.2Z" fill="#FF483D"/></svg>