<svg width="32" height="32" viewBox="0 0 32 32" fill="none" xmlns="http://www.w3.org/2000/svg">
<g clip-path="url(#clip0_55_13622)">
<circle cx="16" cy="16" r="16" fill="#FFEEEC"/>
<path d="M15 14C15 13.4477 14.5523 13 14 13C13.4477 13 13 13.4477 13 14H15ZM13 22C13 22.5523 13.4477 23 14 23C14.5523 23 15 22.5523 15 22H13ZM19 14C19 13.4477 18.5523 13 18 13C17.4477 13 17 13.4477 17 14H19ZM17 22C17 22.5523 17.4477 23 18 23C18.5523 23 19 22.5523 19 22H17ZM11.092 24.782L11.546 23.891H11.546L11.092 24.782ZM10.218 23.908L11.109 23.454L11.109 23.454L10.218 23.908ZM21.782 23.908L20.891 23.454V23.454L21.782 23.908ZM20.908 24.782L20.454 23.891H20.454L20.908 24.782ZM9 10C8.44772 10 8 10.4477 8 11C8 11.5523 8.44772 12 9 12V10ZM23 12C23.5523 12 24 11.5523 24 11C24 10.4477 23.5523 10 23 10V12ZM11.5 11C11.5 11.5523 11.9477 12 12.5 12C13.0523 12 13.5 11.5523 13.5 11H11.5ZM18.5 11C18.5 11.5523 18.9477 12 19.5 12C20.0523 12 20.5 11.5523 20.5 11H18.5ZM13 14V22H15V14H13ZM17 14V22H19V14H17ZM21 11V21.8H23V11H21ZM18.8 24H13.2V26H18.8V24ZM9 11V21.8H11V11H9ZM13.2 24C12.6234 24 12.2512 23.9992 11.9678 23.9761C11.6962 23.9539 11.5955 23.9162 11.546 23.891L10.638 25.673C11.0164 25.8658 11.4096 25.9371 11.805 25.9694C12.1886 26.0008 12.6564 26 13.2 26V24ZM9 21.8C9 22.3436 8.99922 22.8114 9.03057 23.195C9.06287 23.5904 9.13419 23.9836 9.32698 24.362L11.109 23.454C11.0838 23.4045 11.0461 23.3038 11.0239 23.0322C11.0008 22.7488 11 22.3766 11 21.8H9ZM11.546 23.891C11.3578 23.7951 11.2049 23.6422 11.109 23.454L9.32698 24.362C9.6146 24.9265 10.0735 25.3854 10.638 25.673L11.546 23.891ZM21 21.8C21 22.3766 20.9992 22.7488 20.9761 23.0322C20.9539 23.3038 20.9162 23.4045 20.891 23.454L22.673 24.362C22.8658 23.9836 22.9371 23.5904 22.9694 23.195C23.0008 22.8114 23 22.3436 23 21.8H21ZM18.8 26C19.3436 26 19.8114 26.0008 20.195 25.9694C20.5904 25.9371 20.9836 25.8658 21.362 25.673L20.454 23.891C20.4045 23.9162 20.3038 23.9539 20.0322 23.9761C19.7488 23.9992 19.3766 24 18.8 24V26ZM20.891 23.454C20.7951 23.6422 20.6422 23.7951 20.454 23.891L21.362 25.673C21.9265 25.3854 22.3854 24.9265 22.673 24.362L20.891 23.454ZM9 12H10V10H9V12ZM10 12H22V10H10V12ZM22 12H23V10H22V12ZM13.5 10.2C13.5 9.06743 14.5331 8 16 8V6C13.601 6 11.5 7.79795 11.5 10.2H13.5ZM16 8C17.4669 8 18.5 9.06743 18.5 10.2H20.5C20.5 7.79795 18.399 6 16 6V8ZM11.5 10.2V11H13.5V10.2H11.5ZM18.5 10.2V11H20.5V10.2H18.5Z" fill="#FF483D"/>
</g>
<defs>
<clipPath id="clip0_55_13622">
<rect width="32" height="32" fill="white"/>
</clipPath>
</defs>
</svg>
