<svg width="16" height="16" viewBox="0 0 16 16" fill="none" xmlns="http://www.w3.org/2000/svg">
<path d="M6.28194 2.03448C7.04552 0.655173 8.95448 0.655172 9.71806 2.03448L15.7313 12.8966C16.4948 14.2759 15.5404 16 14.0132 16H1.9868C0.45964 16 -0.494837 14.2759 0.268744 12.8966L6.28194 2.03448Z" fill="white"/>
<path fill-rule="evenodd" clip-rule="evenodd" d="M7.98447 5.00001C8.53062 4.99753 8.97535 5.44279 8.9778 5.99452L8.99999 9.98944C9.00244 10.5412 8.56168 10.9904 8.01553 10.9929C7.46938 10.9954 7.02465 10.5501 7.0222 9.9984L7.00001 6.00348C6.99756 5.45176 7.43832 5.00249 7.98447 5.00001ZM7.98891 11.992C8.53507 11.992 8.97781 12.4393 8.97781 12.991V13.001C8.97781 13.5527 8.53507 14 7.98891 14C7.44275 14 7 13.5527 7 13.001V12.991C7 12.4393 7.44275 11.992 7.98891 11.992Z" fill="#FF483D"/>
</svg>
