<svg width="24" height="24" viewBox="0 0 24 24" fill="none" xmlns="http://www.w3.org/2000/svg">
<path d="M6.5965 14.4992L6.19554 15.4153H6.19554L6.5965 14.4992ZM5.46939 14.6046L6.07827 15.3978L6.07827 15.3978L5.46939 14.6046ZM3.80444 15.8825L3.19556 15.0893H3.19556L3.80444 15.8825ZM12.092 17.782L12.546 16.891L12.092 17.782ZM11.218 16.908L12.109 16.454V16.454L11.218 16.908ZM19.908 9.21799L19.454 10.109V10.109L19.908 9.21799ZM20.782 10.092L19.891 10.546L20.782 10.092ZM19.72 20.04L20.32 19.24L19.72 20.04ZM17.2133 18.16L17.8133 17.36L17.8133 17.36L17.2133 18.16ZM11.0192 16L10.0193 16.0192L10.0197 16.0401L10.021 16.0609L11.0192 16ZM16.9292 18.0093L17.1211 17.0279L17.1211 17.0279L16.9292 18.0093ZM17.051 18.0499L17.4864 17.1496L17.4864 17.1496L17.051 18.0499ZM20.8937 20.3083L20.1063 19.6917V19.6918L20.8937 20.3083ZM20.5104 20.4999L20.4896 19.5001H20.4896L20.5104 20.4999ZM14 9C14 11.7614 11.7614 14 9 14V16C12.866 16 16 12.866 16 9H14ZM4 9C4 6.23858 6.23858 4 9 4V2C5.13401 2 2 5.13401 2 9H4ZM9 4C11.7614 4 14 6.23858 14 9H16C16 5.13401 12.866 2 9 2V4ZM9 14C8.28592 14 7.6093 13.8509 6.99746 13.5831L6.19554 15.4153C7.05545 15.7917 8.00472 16 9 16V14ZM4.86051 13.8113L3.19556 15.0893L4.41332 16.6758L6.07827 15.3978L4.86051 13.8113ZM4 15.4859V9H2V15.4859H4ZM3.19556 15.0893C3.52444 14.8368 4 15.0713 4 15.4859H2C2 16.7297 3.42667 17.4331 4.41332 16.6758L3.19556 15.0893ZM6.99746 13.5831C6.35172 13.3005 5.51842 13.3063 4.86051 13.8113L6.07827 15.3978C6.07335 15.4016 6.07511 15.3969 6.09505 15.3953C6.11765 15.3935 6.15411 15.3972 6.19554 15.4153L6.99746 13.5831ZM15 10H17.8V8H15V10ZM14.2 17C13.6234 17 13.2511 16.9992 12.9678 16.9761C12.6961 16.9539 12.5954 16.9162 12.546 16.891L11.638 18.673C12.0164 18.8658 12.4096 18.9371 12.8049 18.9694C13.1886 19.0008 13.6564 19 14.2 19V17ZM12.546 16.891C12.3578 16.7951 12.2048 16.6422 12.109 16.454L10.327 17.362C10.6146 17.9265 11.0735 18.3854 11.638 18.673L12.546 16.891ZM17.8 10C18.3765 10 18.7488 10.0008 19.0321 10.0239C19.3038 10.0461 19.4045 10.0838 19.454 10.109L20.3619 8.32698C19.9836 8.13419 19.5903 8.06287 19.195 8.03057C18.8113 7.99922 18.3435 8 17.8 8V10ZM22 12.2C22 11.6564 22.0008 11.1886 21.9694 10.805C21.9371 10.4096 21.8658 10.0164 21.673 9.63803L19.891 10.546C19.9162 10.5955 19.9539 10.6962 19.976 10.9678C19.9992 11.2512 20 11.6234 20 12.2H22ZM19.454 10.109C19.6421 10.2049 19.7951 10.3578 19.891 10.546L21.673 9.63803C21.3854 9.07354 20.9264 8.6146 20.3619 8.32698L19.454 10.109ZM16.7333 17H14.2V19H16.7333V17ZM20.32 19.24L17.8133 17.36L16.6133 18.96L19.12 20.84L20.32 19.24ZM10.021 16.0609C10.048 16.5033 10.1136 16.9432 10.327 17.362L12.109 16.454C12.0803 16.3978 12.0382 16.2811 12.0173 15.9391L10.021 16.0609ZM12.019 15.9808L11.9998 14.9808L10.0002 15.0192L10.0193 16.0192L12.019 15.9808ZM16.7333 19C16.7459 19 16.7566 19 16.7665 19C16.7764 19 16.7845 19.0001 16.7915 19.0001C16.7984 19.0002 16.8035 19.0002 16.8072 19.0003C16.8109 19.0004 16.8126 19.0004 16.8127 19.0004C16.8133 19.0005 16.8051 19.0002 16.7915 18.9988C16.7845 18.9981 16.7762 18.9971 16.7669 18.9957C16.7575 18.9944 16.7476 18.9927 16.7374 18.9907L17.1211 17.0279C16.9566 16.9957 16.7943 17 16.7333 17V19ZM17.8133 17.36C17.7646 17.3234 17.6372 17.2226 17.4864 17.1496L16.6156 18.9501C16.6062 18.9456 16.5973 18.941 16.589 18.9365C16.5807 18.9319 16.5735 18.9278 16.5675 18.9241C16.5558 18.9171 16.5491 18.9124 16.5495 18.9127C16.5496 18.9128 16.551 18.9137 16.554 18.9159C16.557 18.9181 16.5611 18.9211 16.5667 18.9252C16.5723 18.9293 16.5788 18.9342 16.5867 18.9401C16.5947 18.946 16.6033 18.9525 16.6133 18.96L17.8133 17.36ZM16.7374 18.9907C16.6952 18.9825 16.6543 18.9688 16.6156 18.9501L17.4864 17.1496C17.3703 17.0935 17.2476 17.0526 17.1211 17.0279L16.7374 18.9907ZM20 19.4C20 19.5312 19.9999 19.6347 19.9985 19.7232C19.997 19.8125 19.9942 19.8688 19.9908 19.9055C19.9873 19.944 19.9853 19.9352 19.9951 19.9016C20.0063 19.8633 20.0359 19.7816 20.1063 19.6917L21.681 20.9248C21.9204 20.6191 21.9655 20.274 21.9826 20.0872C22.001 19.8851 22 19.6376 22 19.4H20ZM19.12 20.84C19.31 20.9825 19.5075 21.1319 19.6801 21.2383C19.8398 21.3368 20.143 21.5077 20.5312 21.4997L20.4896 19.5001C20.6037 19.4977 20.6868 19.523 20.7242 19.537C20.757 19.5494 20.7628 19.5563 20.7299 19.536C20.6985 19.5166 20.6518 19.4851 20.5795 19.4327C20.5078 19.3808 20.425 19.3188 20.32 19.24L19.12 20.84ZM20.1063 19.6918C20.1988 19.5736 20.3395 19.5032 20.4896 19.5001L20.5312 21.4997C20.9813 21.4903 21.4034 21.2793 21.681 20.9247L20.1063 19.6918ZM20 12.2V19.4H22V12.2H20Z" fill="#00201E"/>
</svg>
