<svg width="101" height="100" viewBox="0 0 101 100" fill="none" xmlns="http://www.w3.org/2000/svg">
<path d="M100.505 50.6189C100.506 51.4184 100.296 52.2041 99.8954 52.8961C99.4949 53.5881 98.9185 54.1618 98.2245 54.5589L88.3546 60.2289C87.7868 60.5559 87.1552 60.7565 86.5028 60.8169C85.8504 60.8773 85.1927 60.7962 84.5746 60.5789C84.4556 61.1986 84.207 61.7863 83.8451 62.3033C83.4832 62.8203 83.0161 63.255 82.4745 63.5789L82.1146 63.7889L72.5645 69.3089L72.2946 69.4589C71.7339 69.7303 71.1241 69.8853 70.502 69.9145C69.8798 69.9437 69.2581 69.8466 68.6746 69.6289C68.5689 70.2936 68.3156 70.9261 67.9331 71.48C67.5506 72.0338 67.0488 72.4947 66.4645 72.8289L57.4645 78.0289C59.1296 80.8069 60.062 83.9621 60.1746 87.1989C60.1746 90.4689 58.8645 92.6289 56.8445 93.4289C56.5131 93.6898 56.1461 93.902 55.7545 94.0589C55.4237 94.326 55.0524 94.5387 54.6545 94.6889C53.9258 95.1143 53.1958 95.5377 52.4645 95.9589C52.1286 96.2184 51.7584 96.4304 51.3646 96.5889C51.0335 96.8504 50.6664 97.0626 50.2745 97.2189C49.9386 97.4784 49.5684 97.6904 49.1746 97.8489C48.8468 98.1151 48.4788 98.3277 48.0845 98.4789C46.3745 99.8289 43.8645 99.8789 41.0245 98.2389C35.8945 95.2389 31.7245 88.0689 31.7245 82.1189C31.7245 79.1189 32.7845 77.0389 34.4745 76.1689C34.6563 76.0836 34.8433 76.0101 35.0345 75.9489C35.2034 75.7981 35.3839 75.661 35.5746 75.5389C35.7536 75.4553 35.9372 75.3818 36.1245 75.3189C36.2908 75.165 36.4717 75.0277 36.6646 74.9089C36.8444 74.8193 37.0318 74.7457 37.2245 74.6889C37.3932 74.5349 37.5738 74.3945 37.7646 74.2689C37.9438 74.1886 38.1274 74.1184 38.3145 74.0589C38.4832 73.9049 38.6638 73.7645 38.8546 73.6389C39.0347 73.5526 39.2221 73.4823 39.4146 73.4289C39.5807 73.2719 39.7615 73.1313 39.9546 73.0089C40.1336 72.9253 40.3172 72.8518 40.5045 72.7889C40.6734 72.6381 40.8539 72.501 41.0446 72.3789C41.2263 72.2936 41.4133 72.2201 41.6046 72.1589C41.7734 72.0081 41.954 71.871 42.1446 71.7489C42.3236 71.6653 42.5072 71.5918 42.6945 71.5289C42.8638 71.4164 43.041 71.3161 43.2245 71.2289C43.407 71.1452 43.5939 71.0718 43.7845 71.0089C43.9508 70.855 44.1317 70.7177 44.3246 70.5989C44.072 70.3623 43.8048 70.1419 43.5245 69.9389L42.7046 69.3489L41.8946 68.8089C41.6046 68.6189 41.3146 68.4389 41.0146 68.2689C40.0568 67.7166 39.0531 67.2482 38.0146 66.8689C37.6946 66.7489 37.3746 66.6389 37.0146 66.5489C35.8554 66.1867 34.649 65.9979 33.4345 65.9889H32.8646H32.4445C32.2312 65.9889 32.0212 65.9889 31.8145 65.9889C30.8032 66.0001 29.8071 65.7421 28.9284 65.2413C28.0498 64.7404 27.3202 64.0148 26.8145 63.1389L26.5746 62.7289C26.5746 62.7289 28.7746 55.1489 28.7946 55.1189L35.7946 50.9189C37.177 49.9405 38.706 49.1878 40.3246 48.6889C40.598 48.6294 40.8754 48.5892 41.1545 48.5689H41.3846C41.7408 48.5438 42.0983 48.5438 42.4546 48.5689H42.8345H42.9345C43.6371 48.6535 44.3324 48.7906 45.0146 48.9789C47.5847 49.7328 50.043 50.8258 52.3246 52.2289C52.8646 52.5389 53.3245 52.8589 53.8745 53.2289C53.0045 52.4389 52.1146 51.6989 51.2046 50.9889C50.7946 50.6589 50.3845 50.3389 49.9645 49.9889C49.9082 49.9306 49.8443 49.8801 49.7745 49.8389C49.4145 49.5589 49.0446 49.2889 48.6646 49.0189C47.9946 48.5389 47.3146 48.0189 46.6146 47.5989L45.6945 46.9989C45.2245 46.6889 44.6946 46.3889 44.2646 46.0989C43.8346 45.8089 43.0745 45.3789 42.4745 45.0289C36.9045 41.8189 31.8545 40.4589 27.2845 40.4589H26.3345L25.2646 40.5289C24.9946 40.5289 24.7345 40.5289 24.4645 40.6189L23.9045 40.6989L23.4045 40.7789L22.6545 40.9189L21.7845 41.1289C21.4745 41.2089 21.1646 41.2889 20.8546 41.3889C20.5446 41.4889 20.3345 41.5489 20.0845 41.6289C19.4604 41.8449 18.805 41.9564 18.1446 41.9589C17.1336 41.9681 16.1383 41.7092 15.26 41.2085C14.3817 40.7079 13.6518 39.9834 13.1446 39.1089L13.0345 38.9189L14.7445 31.5989C14.7445 31.5989 14.7446 31.5989 14.8646 31.4989C15.6546 30.9389 19.5546 28.2289 19.8646 28.0489C21.7001 26.9733 23.6277 26.063 25.6245 25.3289C26.4445 25.0156 27.2846 24.7356 28.1446 24.4889L29.2845 24.1789C29.6645 24.0889 30.0445 23.9889 30.4345 23.9089C31.2145 23.7389 31.9946 23.5989 32.7946 23.4789L33.7946 23.3389H34.0245L35.2245 23.2289C35.2356 23.2242 35.2475 23.2218 35.2596 23.2218C35.2716 23.2218 35.2835 23.2242 35.2946 23.2289L36.4045 23.1589C36.5076 23.1489 36.6115 23.1489 36.7145 23.1589C38.0691 23.1194 39.4247 23.1594 40.7745 23.2789C42.5331 23.4505 44.2753 23.7614 45.9846 24.2089C39.9398 20.8197 33.2327 18.7796 26.3246 18.2289C23.8398 18.0696 21.3456 18.1432 18.8745 18.4489C18.2545 18.5189 17.6246 18.6089 17.0146 18.7189H16.8246C16.4446 18.7789 16.0845 18.8489 15.7145 18.9389C15.0845 19.0689 14.4645 19.2089 13.8445 19.3689C13.2245 19.5289 12.6245 19.7089 12.0245 19.8989C11.5845 20.0256 11.1546 20.1656 10.7346 20.3189C10.1846 20.5089 9.63455 20.7189 9.10455 20.9289C8.34242 21.2391 7.52741 21.3987 6.70456 21.3989C5.53051 21.3919 4.37883 21.077 3.36456 20.4857C2.3503 19.8943 1.50895 19.0472 0.924561 18.0289L0.784546 17.7889C0.864546 17.4089 2.69455 9.34889 2.69455 9.34889H2.74454L2.87454 9.24889L2.96454 9.17889C3.88454 8.49889 6.86456 6.30889 7.17456 6.17889C9.34646 4.91309 11.6212 3.83261 13.9745 2.94889C15.3079 2.44889 16.6412 2.00889 17.9745 1.62889L19.4246 1.25889L20.9345 0.918893C22.4852 0.609914 24.0506 0.379617 25.6245 0.22889C26.1545 0.16889 26.6845 0.128891 27.2245 0.0888907C27.7645 0.0488907 28.3045 0.0288889 28.8445 0.00888889C29.3845 -0.0111111 29.9346 0.00888889 30.4846 0.00888889C39.3246 0.00888889 49.0245 2.41889 59.0545 8.20889C62.9645 10.4689 66.4846 12.6589 69.7245 14.8889C70.1245 15.1589 70.5146 15.4289 70.8946 15.7089C71.8946 16.4289 72.8946 17.1689 73.8946 17.9089L75.2046 18.9089C76.2046 19.6689 77.1145 20.4389 78.0345 21.2389C78.4045 21.5489 78.7546 21.8589 79.1146 22.1789L79.6545 22.6589L80.7946 23.7089C83.074 25.845 85.2339 28.105 87.2646 30.4789L88.0446 31.4089C88.4446 31.8789 88.8345 32.4089 89.2245 32.8489C89.8345 33.5989 90.4446 34.3789 91.0446 35.1789L92.0945 36.5789C92.8345 37.5789 93.5745 38.5789 94.3145 39.7189C94.6745 40.2489 95.0445 40.7789 95.4045 41.3289C95.7645 41.8789 96.1345 42.4289 96.5045 42.9989C96.8745 43.5689 97.2446 44.1389 97.6046 44.7189C98.3446 45.8889 99.0945 47.0889 99.8445 48.3389C100.264 49.0263 100.492 49.8136 100.505 50.6189Z" fill="#FF483D"/>
<g opacity="0.2">
<path d="M100.505 50.6189C100.506 51.4184 100.296 52.2041 99.8954 52.8961C99.4949 53.5881 98.9185 54.1618 98.2245 54.5589L88.3546 60.2289C87.7868 60.5559 87.1552 60.7565 86.5028 60.8169C85.8504 60.8773 85.1927 60.7962 84.5746 60.5789C84.4556 61.1986 84.207 61.7863 83.8451 62.3033C83.4832 62.8203 83.0161 63.255 82.4745 63.5789L82.1146 63.7889L72.5645 69.3089L72.2946 69.4589C71.7339 69.7303 71.1241 69.8853 70.502 69.9145C69.8798 69.9437 69.2581 69.8466 68.6746 69.6289C68.5689 70.2936 68.3156 70.9261 67.9331 71.48C67.5506 72.0338 67.0488 72.4947 66.4645 72.8289L57.4645 78.0289C59.1296 80.8069 60.062 83.9621 60.1746 87.1989C60.1746 90.4689 58.8645 92.6289 56.8445 93.4289C56.5131 93.6898 56.1461 93.902 55.7545 94.0589C55.4237 94.326 55.0524 94.5387 54.6545 94.6889C53.9258 95.1143 53.1958 95.5377 52.4645 95.9589C52.1286 96.2184 51.7584 96.4304 51.3646 96.5889C51.0335 96.8504 50.6664 97.0626 50.2745 97.2189C49.9386 97.4784 49.5684 97.6904 49.1746 97.8489C48.8468 98.1151 48.4788 98.3277 48.0845 98.4789C46.3745 99.8289 43.8645 99.8789 41.0245 98.2389C35.8945 95.2389 31.7245 88.0689 31.7245 82.1189C31.7245 79.1189 32.7845 77.0389 34.4745 76.1689C34.6563 76.0836 34.8433 76.0101 35.0345 75.9489C35.2034 75.7981 35.3839 75.661 35.5746 75.5389C35.7536 75.4553 35.9372 75.3818 36.1245 75.3189C36.2908 75.165 36.4717 75.0277 36.6646 74.9089C36.8444 74.8193 37.0318 74.7457 37.2245 74.6889C37.3932 74.5349 37.5738 74.3945 37.7646 74.2689C37.9438 74.1886 38.1274 74.1184 38.3145 74.0589C38.4832 73.9049 38.6638 73.7645 38.8546 73.6389C39.0347 73.5526 39.2221 73.4823 39.4146 73.4289C39.5807 73.2719 39.7615 73.1313 39.9546 73.0089C40.1336 72.9253 40.3172 72.8518 40.5045 72.7889C40.6734 72.6381 40.8539 72.501 41.0446 72.3789C41.2263 72.2936 41.4133 72.2201 41.6046 72.1589C41.7734 72.0081 41.954 71.871 42.1446 71.7489C42.3236 71.6653 42.5072 71.5918 42.6945 71.5289C42.8638 71.4164 43.041 71.3161 43.2245 71.2289C43.407 71.1452 43.5939 71.0718 43.7845 71.0089C43.9508 70.855 44.1317 70.7177 44.3246 70.5989C44.072 70.3623 43.8048 70.1419 43.5245 69.9389L42.7046 69.3489L41.8946 68.8089C41.6046 68.6189 41.3146 68.4389 41.0146 68.2689C40.0568 67.7166 39.0531 67.2482 38.0146 66.8689C37.6946 66.7489 37.3746 66.6389 37.0146 66.5489C35.8554 66.1867 34.649 65.9979 33.4345 65.9889H32.8646H32.4445C32.2312 65.9889 32.0212 65.9889 31.8145 65.9889C30.8032 66.0001 29.8071 65.7421 28.9284 65.2413C28.0498 64.7404 27.3202 64.0148 26.8145 63.1389L26.5746 62.7289C26.5746 62.7289 28.7746 55.1489 28.7946 55.1189L35.7946 50.9189C37.177 49.9405 38.706 49.1878 40.3246 48.6889C40.598 48.6294 40.8754 48.5892 41.1545 48.5689H41.3846C41.7408 48.5438 42.0983 48.5438 42.4546 48.5689H42.8345H42.9345C43.6371 48.6535 44.3324 48.7906 45.0146 48.9789C47.5847 49.7328 50.043 50.8258 52.3246 52.2289C52.8646 52.5389 53.3245 52.8589 53.8745 53.2289C53.0045 52.4389 52.1146 51.6989 51.2046 50.9889C50.7946 50.6589 50.3845 50.3389 49.9645 49.9889C49.9082 49.9306 49.8443 49.8801 49.7745 49.8389C49.4145 49.5589 49.0446 49.2889 48.6646 49.0189C47.9946 48.5389 47.3146 48.0189 46.6146 47.5989L45.6945 46.9989C45.2245 46.6889 44.6946 46.3889 44.2646 46.0989C43.8346 45.8089 43.0745 45.3789 42.4745 45.0289C36.9045 41.8189 31.8545 40.4589 27.2845 40.4589H26.3345L25.2646 40.5289C24.9946 40.5289 24.7345 40.5289 24.4645 40.6189L23.9045 40.6989L23.4045 40.7789L22.6545 40.9189L21.7845 41.1289C21.4745 41.2089 21.1646 41.2889 20.8546 41.3889C20.5446 41.4889 20.3345 41.5489 20.0845 41.6289C19.4604 41.8449 18.805 41.9564 18.1446 41.9589C17.1336 41.9681 16.1383 41.7092 15.26 41.2085C14.3817 40.7079 13.6518 39.9834 13.1446 39.1089L13.0345 38.9189L14.7445 31.5989C14.7445 31.5989 14.7446 31.5989 14.8646 31.4989C15.6546 30.9389 19.5546 28.2289 19.8646 28.0489C21.7001 26.9733 23.6277 26.063 25.6245 25.3289C26.4445 25.0156 27.2846 24.7356 28.1446 24.4889L29.2845 24.1789C29.6645 24.0889 30.0445 23.9889 30.4345 23.9089C31.2145 23.7389 31.9946 23.5989 32.7946 23.4789L33.7946 23.3389H34.0245L35.2245 23.2289C35.2356 23.2242 35.2475 23.2218 35.2596 23.2218C35.2716 23.2218 35.2835 23.2242 35.2946 23.2289L36.4045 23.1589C36.5076 23.1489 36.6115 23.1489 36.7145 23.1589C38.0691 23.1194 39.4247 23.1594 40.7745 23.2789C42.5331 23.4505 44.2753 23.7614 45.9846 24.2089C39.9398 20.8197 33.2327 18.7796 26.3246 18.2289C23.8398 18.0696 21.3456 18.1432 18.8745 18.4489C18.2545 18.5189 17.6246 18.6089 17.0146 18.7189H16.8246C16.4446 18.7789 16.0845 18.8489 15.7145 18.9389C15.0845 19.0689 14.4645 19.2089 13.8445 19.3689C13.2245 19.5289 12.6245 19.7089 12.0245 19.8989C11.5845 20.0256 11.1546 20.1656 10.7346 20.3189C10.1846 20.5089 9.63455 20.7189 9.10455 20.9289C8.34242 21.2391 7.52741 21.3987 6.70456 21.3989C5.53051 21.3919 4.37883 21.077 3.36456 20.4857C2.3503 19.8943 1.50895 19.0472 0.924561 18.0289L0.784546 17.7889C0.864546 17.4089 2.69455 9.34889 2.69455 9.34889H2.74454L2.87454 9.24889L2.96454 9.17889C3.88454 8.49889 6.86456 6.30889 7.17456 6.17889C9.34646 4.91309 11.6212 3.83261 13.9745 2.94889C15.3079 2.44889 16.6412 2.00889 17.9745 1.62889L19.4246 1.25889L20.9345 0.918893C22.4852 0.609914 24.0506 0.379617 25.6245 0.22889C26.1545 0.16889 26.6845 0.128891 27.2245 0.0888907C27.7645 0.0488907 28.3045 0.0288889 28.8445 0.00888889C29.3845 -0.0111111 29.9346 0.00888889 30.4846 0.00888889C39.3246 0.00888889 49.0245 2.41889 59.0545 8.20889C62.9645 10.4689 66.4846 12.6589 69.7245 14.8889C70.1245 15.1589 70.5146 15.4289 70.8946 15.7089C71.8946 16.4289 72.8946 17.1689 73.8946 17.9089L75.2046 18.9089C76.2046 19.6689 77.1145 20.4389 78.0345 21.2389C78.4045 21.5489 78.7546 21.8589 79.1146 22.1789L79.6545 22.6589L80.7946 23.7089C83.074 25.845 85.2339 28.105 87.2646 30.4789L88.0446 31.4089C88.4446 31.8789 88.8345 32.4089 89.2245 32.8489C89.8345 33.5989 90.4446 34.3789 91.0446 35.1789L92.0945 36.5789C92.8345 37.5789 93.5745 38.5789 94.3145 39.7189C94.6745 40.2489 95.0445 40.7789 95.4045 41.3289C95.7645 41.8789 96.1345 42.4289 96.5045 42.9989C96.8745 43.5689 97.2446 44.1389 97.6046 44.7189C98.3446 45.8889 99.0945 47.0889 99.8445 48.3389C100.264 49.0263 100.492 49.8136 100.505 50.6189Z" fill="black"/>
</g>
<path d="M50.3046 92.9592C50.3046 98.8592 46.1446 101.289 41.0146 98.3092C35.8846 95.3292 31.7146 88.1492 31.7146 82.1992C31.7146 79.1992 32.7746 77.1192 34.4646 76.2492C36.1546 75.3792 38.4646 75.3792 41.0146 76.8392C43.7258 78.6018 45.9811 80.9815 47.5958 83.7833C49.2105 86.5852 50.1388 89.7296 50.3046 92.9592Z" fill="#FF483D"/>
<path d="M58.0646 71.9491C54.0314 66.1117 48.6936 61.2944 42.4746 57.8791C39.5856 56.1459 36.4083 54.9468 33.0946 54.3391C32.1402 54.171 31.1592 54.2389 30.2372 54.537C29.3151 54.835 28.4799 55.3542 27.8046 56.0491L27.7446 56.1191C26.9132 56.9823 26.366 58.0794 26.1765 59.2629C25.987 60.4463 26.1643 61.6594 26.6846 62.7391C26.7532 62.893 26.83 63.0432 26.9146 63.1891C27.4202 64.065 28.1498 64.7906 29.0285 65.2915C29.9071 65.7923 30.9032 66.0503 31.9146 66.0391C32.1212 66.0391 32.3312 66.0391 32.5446 66.0391H32.9646H33.5346C34.749 66.0481 35.9554 66.2368 37.1146 66.5991C37.4346 66.6891 37.7546 66.7991 38.1146 66.9191C39.1531 67.2984 40.1568 67.7668 41.1146 68.3191C41.4146 68.4891 41.7046 68.6691 41.9946 68.8591C42.2846 69.0491 42.5446 69.2091 42.8046 69.3991C43.0646 69.5891 43.3546 69.7791 43.6246 69.9891C43.8946 70.1991 44.1746 70.4091 44.4446 70.6291C46.8168 72.5774 48.9217 74.8302 50.7046 77.3291C51.4296 78.2596 52.4858 78.8744 53.6529 79.0456C54.8201 79.2167 56.0083 78.9309 56.9699 78.2477C57.9315 77.5645 58.5925 76.5365 58.8151 75.3781C59.0376 74.2196 58.8046 73.02 58.1646 72.0291L58.0646 71.9491Z" fill="#FF483D"/>
<path d="M74.1245 62.9887C65.8445 49.6087 57.3645 40.8987 44.7845 33.4687C40.5011 30.9125 35.6976 29.3525 30.7296 28.9041C25.7616 28.4558 20.7564 29.1307 16.0845 30.8787C15.6575 31.0313 15.2511 31.2362 14.8745 31.4887L14.7545 31.5887C13.6317 32.3951 12.8395 33.5815 12.5251 34.9277C12.2106 36.2738 12.3952 37.6883 13.0445 38.9087L13.1545 39.0987C13.6617 39.9733 14.3917 40.6977 15.27 41.1984C16.1483 41.699 17.1436 41.9579 18.1545 41.9487C18.815 41.9463 19.4704 41.8348 20.0945 41.6187C20.3445 41.5387 20.6046 41.4487 20.8646 41.3787C21.1246 41.3087 21.4845 41.1987 21.7945 41.1187L22.6645 40.9087L23.4145 40.7687L23.9145 40.6887L24.4745 40.6087C24.7445 40.6087 25.0045 40.5387 25.2745 40.5187L26.3445 40.4487H27.2945C31.8645 40.4487 36.9145 41.8087 42.4845 45.0187L44.2745 46.0887C44.7545 46.3787 45.2745 46.6787 45.7045 46.9887L46.6245 47.5887C47.3245 48.0487 48.0046 48.5287 48.6745 49.0087C49.0546 49.2787 49.4245 49.5487 49.7845 49.8287C49.8543 49.8699 49.9182 49.9204 49.9745 49.9787C50.3945 50.2787 50.8045 50.5987 51.2145 50.9787C52.1245 51.6887 53.0145 52.4287 53.8845 53.2187C53.8845 53.2187 53.8845 53.2187 53.9345 53.2187C58.7712 57.5221 62.979 62.484 66.4345 67.9587C66.9629 68.778 67.7467 69.4002 68.6645 69.7287C69.2481 69.9464 69.8698 70.0436 70.4919 70.0144C71.1141 69.9851 71.7239 69.8302 72.2845 69.5587L72.5545 69.4087C73.0858 69.0991 73.5494 68.6859 73.9178 68.1937C74.2863 67.7014 74.5521 67.1402 74.6995 66.5432C74.8469 65.9463 74.8728 65.3258 74.7757 64.7186C74.6787 64.1115 74.4606 63.53 74.1345 63.0087L74.1245 62.9887Z" fill="#FF483D"/>
<path d="M89.9946 53.9692C77.9946 33.9692 67.9946 24.6992 49.1946 13.8192C32.5046 4.22915 16.7246 3.92916 4.3246 8.50916C3.83833 8.69385 3.37249 8.92844 2.93458 9.20916L2.84459 9.27916L2.71458 9.37916H2.66459C1.40059 10.3314 0.515082 11.7009 0.165386 13.2443C-0.184309 14.7877 0.0244496 16.4051 0.754589 17.8092C0.754589 17.8992 0.844604 17.9692 0.894604 18.0592C1.47899 19.0775 2.32034 19.9246 3.33461 20.516C4.34887 21.1073 5.50055 21.4222 6.6746 21.4292C7.49745 21.429 8.31246 21.2694 9.0746 20.9592C9.6046 20.7492 10.1546 20.5392 10.7046 20.3492C11.2546 20.1592 11.5546 20.0592 11.9946 19.9292C12.5946 19.7392 13.1946 19.5592 13.8146 19.3992C14.4346 19.2392 15.0546 19.0992 15.6846 18.9692C16.0546 18.8792 16.4146 18.8092 16.7946 18.7492H16.9846C17.5946 18.6392 18.2246 18.5492 18.8446 18.4792C21.3242 18.1567 23.829 18.073 26.3246 18.2292C33.2712 18.7578 40.0169 20.8061 46.0846 24.2292L47.5746 25.0692C63.3746 34.1892 72.0846 42.0692 82.1746 58.7092C82.8246 59.689 83.828 60.3798 84.9753 60.6374C86.1226 60.895 87.325 60.6996 88.3315 60.0918C89.3381 59.4839 90.0709 58.5108 90.3771 57.3755C90.6833 56.2403 90.5391 55.0306 89.9746 53.9992L89.9946 53.9692Z" fill="#FF483D"/>
</svg>
