<svg width="180" height="180" viewBox="0 0 180 180" fill="none" xmlns="http://www.w3.org/2000/svg">
<path d="M107.262 170.948L145.657 148.891C150.304 146.222 150.304 141.894 145.657 139.255L80.9777 102.093C76.3301 99.4247 68.8001 99.4247 64.16 102.093L25.7653 124.15C21.1251 126.818 21.1251 131.147 25.7653 133.785L90.4516 170.948C95.0918 173.616 102.622 173.616 107.262 170.948Z" fill="#E0E0E0"/>
<path d="M95.8228 157.974C95.6388 156.348 95.0753 154.789 94.1778 153.422C93.2804 152.054 92.0741 150.917 90.6563 150.101C89.2472 149.356 88.0245 149.423 87.2044 150.049L84.1328 152.039L91.5211 163.11L94.5629 161.127C95.4128 160.591 95.9123 159.502 95.8228 157.974Z" fill="#455A64"/>
<path d="M87.4794 152.181C88.8982 152.995 90.1048 154.132 91.0013 155.5C91.8978 156.868 92.4587 158.428 92.6385 160.054C92.81 163.036 90.7746 164.385 88.0907 163.036C86.6743 162.219 85.4694 161.082 84.5733 159.714C83.6772 158.347 83.1149 156.788 82.9316 155.163C82.7676 152.159 84.8029 150.824 87.4794 152.181Z" fill="#37474F"/>
<path d="M86.1838 156.774C86.1167 155.603 86.7951 155.029 87.6749 155.484C88.1837 155.806 88.6086 156.244 88.9145 156.763C89.2205 157.281 89.3986 157.865 89.4343 158.466C89.5014 159.636 88.823 160.211 87.9432 159.756C87.4357 159.433 87.0117 158.994 86.7059 158.476C86.4002 157.957 86.2212 157.374 86.1838 156.774Z" fill="#263238"/>
<path d="M92.7083 146.865C92.7083 146.865 93.0065 152.233 90.5611 154.268C90.0989 154.656 89.5994 154.932 89.3161 155.2C88.6898 155.782 89.1819 156.751 89.9945 157.131C91.1799 157.683 97.3604 155.64 99.7312 150.421L92.7083 146.865Z" fill="#0D6E20"/>
<path opacity="0.6" d="M92.7083 146.865C92.7083 146.865 93.0065 152.233 90.5611 154.268C90.0989 154.656 89.5994 154.932 89.3161 155.2C88.6898 155.782 89.1819 156.751 89.9945 157.131C91.1799 157.683 97.3604 155.64 99.7312 150.421L92.7083 146.865Z" fill="#00201E"/>
<path d="M90.3528 148.401C90.3528 148.401 90.651 153.769 88.2056 155.804C87.7434 156.192 87.2439 156.468 86.9606 156.736C86.3344 157.318 86.8264 158.287 87.639 158.667C88.8245 159.219 95.0049 157.176 97.3757 151.958L90.3528 148.401Z" fill="#0D6E20"/>
<path opacity="0.4" d="M90.3528 148.401C90.3528 148.401 90.651 153.769 88.2056 155.804C87.7434 156.192 87.2439 156.468 86.9606 156.736C86.3344 157.318 86.8264 158.287 87.639 158.667C88.8245 159.219 95.0049 157.176 97.3757 151.958L90.3528 148.401Z" fill="#00201E"/>
<path d="M87.756 157.087C87.892 157.163 88.0081 157.27 88.0949 157.4C88.1817 157.529 88.2367 157.677 88.2555 157.832C88.2555 158.123 88.0766 158.25 87.8156 158.116C87.6806 158.039 87.5656 157.931 87.4801 157.802C87.3946 157.672 87.341 157.524 87.3236 157.37C87.3086 157.079 87.5025 156.953 87.756 157.087Z" fill="#263238"/>
<path d="M129.245 135.683C129.062 134.058 128.499 132.499 127.603 131.132C126.707 129.764 125.502 128.626 124.086 127.81C122.677 127.102 121.454 127.139 120.627 127.758L117.562 129.748L124.951 140.819L127.985 138.836C128.835 138.299 129.327 137.211 129.245 135.683Z" fill="#455A64"/>
<path d="M120.904 129.89C122.321 130.706 123.526 131.844 124.422 133.212C125.318 134.579 125.88 136.138 126.064 137.763C126.235 140.745 124.2 142.094 121.516 140.745C120.098 139.928 118.893 138.789 117.997 137.42C117.101 136.051 116.539 134.491 116.357 132.865C116.185 129.868 118.243 128.541 120.904 129.89Z" fill="#37474F"/>
<path d="M119.567 134.49C119.5 133.312 120.178 132.738 121.058 133.193C121.565 133.516 121.989 133.955 122.295 134.473C122.6 134.992 122.78 135.574 122.818 136.175C122.885 137.345 122.206 137.927 121.327 137.465C120.819 137.144 120.394 136.706 120.089 136.189C119.783 135.672 119.604 135.09 119.567 134.49Z" fill="#263238"/>
<path d="M125.741 125.364C125.741 125.364 126.427 129.942 123.982 131.985C123.52 132.365 123.02 132.641 122.737 132.909C122.111 133.49 122.603 134.467 123.415 134.84C124.601 135.399 130.394 134.154 132.764 128.876L125.741 125.364Z" fill="#0D6E20"/>
<path opacity="0.6" d="M125.741 125.364C125.741 125.364 126.427 129.942 123.982 131.985C123.52 132.365 123.02 132.641 122.737 132.909C122.111 133.49 122.603 134.467 123.415 134.84C124.601 135.399 130.394 134.154 132.764 128.876L125.741 125.364Z" fill="#00201E"/>
<path d="M123.772 126.118C123.772 126.118 124.07 131.478 121.625 133.521C121.163 133.901 120.663 134.177 120.373 134.446C119.754 135.027 120.246 136.004 121.058 136.384C122.244 136.936 128.424 134.893 130.795 129.674L123.772 126.118Z" fill="#0D6E20"/>
<path opacity="0.4" d="M123.772 126.118C123.772 126.118 124.07 131.478 121.625 133.521C121.163 133.901 120.663 134.177 120.373 134.446C119.754 135.027 120.246 136.004 121.058 136.384C122.244 136.936 128.424 134.893 130.795 129.674L123.772 126.118Z" fill="#00201E"/>
<path d="M121.179 134.796C121.315 134.872 121.43 134.979 121.515 135.109C121.601 135.239 121.654 135.387 121.671 135.541C121.671 135.832 121.492 135.959 121.239 135.832C121.104 135.755 120.99 135.647 120.904 135.518C120.819 135.389 120.765 135.241 120.747 135.087C120.724 134.796 120.926 134.647 121.179 134.796Z" fill="#263238"/>
<path d="M62.7812 141.506C62.599 139.88 62.0372 138.319 61.1411 136.95C60.2449 135.582 59.0395 134.443 57.6221 133.625C56.2205 132.917 54.9978 132.954 54.1702 133.581L51.0986 135.571L58.4869 146.642L61.5287 144.652C62.3786 144.122 62.8706 143.034 62.7812 141.506Z" fill="#455A64"/>
<path d="M54.4386 135.712C55.8595 136.525 57.0677 137.663 57.9644 139.033C58.8611 140.402 59.4208 141.965 59.5977 143.592C59.7692 146.574 57.7339 147.924 55.0574 146.574C53.6374 145.762 52.4298 144.625 51.5332 143.257C50.6365 141.889 50.0763 140.328 49.8983 138.702C49.7268 135.69 51.7621 134.355 54.4386 135.712Z" fill="#37474F"/>
<path d="M53.1051 140.305C53.038 139.134 53.7239 138.56 54.5962 139.015C55.106 139.337 55.532 139.775 55.8392 140.293C56.1465 140.812 56.326 141.396 56.3631 141.997C56.4302 143.168 55.7443 143.742 54.872 143.287C54.3631 142.965 53.9377 142.526 53.6306 142.008C53.3235 141.49 53.1434 140.906 53.1051 140.305Z" fill="#263238"/>
<path d="M59.6632 130.396C59.6632 130.396 59.9689 135.757 57.5161 137.8C57.0538 138.187 56.5618 138.463 56.271 138.731C55.6522 139.313 56.1368 140.282 56.9569 140.662C58.1423 141.214 64.3228 139.171 66.6936 133.953L59.6632 130.396Z" fill="#0D6E20"/>
<path opacity="0.6" d="M59.6632 130.396C59.6632 130.396 59.9689 135.757 57.5161 137.8C57.0538 138.187 56.5618 138.463 56.271 138.731C55.6522 139.313 56.1368 140.282 56.9569 140.662C58.1423 141.214 64.3228 139.171 66.6936 133.953L59.6632 130.396Z" fill="#00201E"/>
<path d="M57.3077 131.933C57.3077 131.933 57.6134 137.3 55.1606 139.336C54.6984 139.723 54.1989 139.999 53.9156 140.268C53.2968 140.849 53.7814 141.818 54.6015 142.198C55.7869 142.75 61.9674 140.707 64.3382 135.489L57.3077 131.933Z" fill="#0D6E20"/>
<path opacity="0.4" d="M57.3077 131.933C57.3077 131.933 57.6134 137.3 55.1606 139.336C54.6984 139.723 54.1989 139.999 53.9156 140.268C53.2968 140.849 53.7814 141.818 54.6015 142.198C55.7869 142.75 61.9674 140.707 64.3382 135.489L57.3077 131.933Z" fill="#00201E"/>
<path d="M54.7219 140.611C54.8569 140.687 54.9719 140.795 55.0574 140.924C55.1429 141.054 55.1966 141.202 55.214 141.356C55.214 141.647 55.035 141.774 54.7741 141.64C54.6391 141.563 54.5242 141.455 54.4386 141.326C54.3531 141.196 54.2995 141.048 54.2821 140.894C54.2671 140.611 54.461 140.484 54.7219 140.611Z" fill="#263238"/>
<path d="M97.538 118.737C97.3583 117.111 96.7973 115.551 95.9008 114.183C95.0044 112.815 93.7977 111.678 92.3789 110.864C90.9698 110.118 89.7472 110.193 88.9271 110.812L85.8555 112.802L93.2437 123.873L96.2855 121.89C97.1354 121.353 97.6275 120.265 97.538 118.737Z" fill="#455A64"/>
<path d="M89.1664 112.944C90.5963 113.751 91.8148 114.885 92.7219 116.254C93.629 117.622 94.199 119.186 94.3852 120.817C94.5567 123.799 92.5213 125.149 89.8374 123.799C88.42 122.982 87.2146 121.843 86.3184 120.474C85.4222 119.105 84.8604 117.545 84.6783 115.919C84.4845 112.93 86.5198 111.595 89.1664 112.944Z" fill="#37474F"/>
<path d="M87.86 117.544C87.7929 116.373 88.4788 115.792 89.3511 116.247C89.8592 116.57 90.284 117.008 90.591 117.526C90.898 118.045 91.0785 118.628 91.118 119.229C91.1776 120.399 90.4992 120.981 89.5897 120.518C89.0886 120.193 88.671 119.754 88.3706 119.237C88.0702 118.72 87.8953 118.14 87.86 117.544Z" fill="#263238"/>
<path d="M94.4216 107.637C94.4216 107.637 94.7199 112.997 92.2745 115.04C91.8123 115.42 91.3128 115.696 91.0295 115.964C90.4032 116.546 90.8953 117.522 91.7079 117.903C92.9008 118.454 99.0812 116.412 101.445 111.193L94.4216 107.637Z" fill="#0D6E20"/>
<path opacity="0.6" d="M94.4216 107.637C94.4216 107.637 94.7199 112.997 92.2745 115.04C91.8123 115.42 91.3128 115.696 91.0295 115.964C90.4032 116.546 90.8953 117.522 91.7079 117.903C92.9008 118.454 99.0812 116.412 101.445 111.193L94.4216 107.637Z" fill="#00201E"/>
<path d="M92.0662 109.172C92.0662 109.172 92.3644 114.532 89.919 116.575C89.4568 116.955 88.9573 117.231 88.674 117.499C88.0477 118.081 88.5398 119.058 89.3524 119.438C90.5378 119.989 96.7183 117.947 99.0891 112.728L92.0662 109.172Z" fill="#0D6E20"/>
<path opacity="0.4" d="M92.0662 109.172C92.0662 109.172 92.3644 114.532 89.919 116.575C89.4568 116.955 88.9573 117.231 88.674 117.499C88.0477 118.081 88.5398 119.058 89.3524 119.438C90.5378 119.989 96.7183 117.947 99.0891 112.728L92.0662 109.172Z" fill="#00201E"/>
<path d="M89.4694 117.85C89.6054 117.926 89.7215 118.033 89.8083 118.163C89.8951 118.292 89.9501 118.441 89.9689 118.595C89.9689 118.886 89.7899 119.013 89.529 118.886C89.3955 118.808 89.2817 118.7 89.1965 118.57C89.1112 118.441 89.0566 118.294 89.0369 118.141C89.022 117.85 89.2159 117.723 89.4694 117.85Z" fill="#263238"/>
<path d="M107.573 155.469C105.866 155.599 104.155 155.291 102.6 154.575L55.3185 130.919C52.6569 129.577 49.6673 126.096 49.4809 122.8L46.9834 78.6059L49.4437 78.4717L51.9337 122.718C52.0605 124.955 54.4089 127.766 56.407 128.78L103.689 152.405C104.873 152.902 106.154 153.122 107.436 153.048C108.718 152.975 109.966 152.609 111.085 151.98L137.298 136.809C137.998 136.347 138.401 135.795 138.371 135.318C138.341 134.841 137.909 134.386 137.163 134.006L89.9636 106.608C87.3094 105.273 84.3273 101.784 84.1409 98.4815L82.3591 68.2953L84.8119 68.1611L86.6086 98.3622C86.7354 100.599 89.0764 103.417 91.0819 104.423L138.274 131.821C139.855 132.619 140.764 133.812 140.846 135.191C140.84 135.942 140.634 136.678 140.25 137.324C139.866 137.969 139.318 138.502 138.662 138.867L112.449 154.03C110.973 154.918 109.294 155.413 107.573 155.469Z" fill="#0D6E20"/>
<path d="M107.573 155.469C105.866 155.599 104.155 155.291 102.6 154.575L55.3185 130.919C52.6569 129.577 49.6673 126.096 49.4809 122.8L46.9834 78.6059L49.4437 78.4717L51.9337 122.718C52.0605 124.955 54.4089 127.766 56.407 128.78L103.689 152.405C104.873 152.902 106.154 153.122 107.436 153.048C108.718 152.975 109.966 152.609 111.085 151.98L137.298 136.809C137.998 136.347 138.401 135.795 138.371 135.318C138.341 134.841 137.909 134.386 137.163 134.006L89.9636 106.608C87.3094 105.273 84.3273 101.784 84.1409 98.4815L82.3591 68.2953L84.8119 68.1611L86.6086 98.3622C86.7354 100.599 89.0764 103.417 91.0819 104.423L138.274 131.821C139.855 132.619 140.764 133.812 140.846 135.191C140.84 135.942 140.634 136.678 140.25 137.324C139.866 137.969 139.318 138.502 138.662 138.867L112.449 154.03C110.973 154.918 109.294 155.413 107.573 155.469Z" fill="#00201E"/>
<path d="M39.5874 34.0014C39.1712 32.4016 39.2483 30.7135 39.8084 29.1582C40.3685 27.603 41.3855 26.2534 42.7261 25.2863L68.9882 7.8084C71.6497 6.06387 74.5648 7.27161 75.5041 10.3208L79.8735 23.5677L77.9053 24.8575L73.6701 12.5276C73.5785 12.1711 73.4004 11.8428 73.1515 11.5717C72.9026 11.3006 72.5907 11.0951 72.2434 10.9734C71.896 10.8518 71.524 10.8177 71.1604 10.8742C70.7967 10.9307 70.4527 11.0761 70.1586 11.2974L44.6719 28.3503C43.8102 28.9777 43.1546 29.8471 42.7882 30.848C42.4218 31.8489 42.3612 32.9362 42.6142 33.9716L46.0437 45.654L43.6804 47.2046L39.5874 34.0014Z" fill="#0D6E20"/>
<path d="M39.6938 33.96C39.2731 32.3627 39.351 30.677 39.9172 29.1242C40.4835 27.5713 41.5117 26.2237 42.8671 25.2581L69.0168 7.66069C71.7077 5.91881 74.6548 7.12472 75.6045 10.1693L79.9881 23.5696L77.9982 24.8574L73.7503 12.3727C73.6577 12.0168 73.4776 11.689 73.226 11.4183C72.9744 11.1476 72.659 10.9424 72.3078 10.8209C71.9567 10.6994 71.5806 10.6654 71.2129 10.7218C70.8453 10.7783 70.4974 10.9234 70.2002 11.1444L44.8344 28.3175C43.9632 28.9439 43.3003 29.812 42.9299 30.8114C42.5594 31.8108 42.4982 32.8964 42.754 33.9302L46.2213 45.5948L43.8319 47.1431L39.6938 33.96Z" fill="#00201E"/>
<path d="M43.7861 47.1746L80.1534 23.3477L83.9854 72.0154L47.6107 95.8423L43.7861 47.1746Z" fill="#0D6E20"/>
<path d="M80.1509 23.3477L83.9829 72.0228L147.063 103.849L157.791 62.5249L80.1509 23.3477ZM102.867 70.5318C102.037 70.7918 101.137 70.7127 100.365 70.3119C99.5924 69.911 99.01 69.2209 98.7446 68.3922L89.2315 43.693C89.0317 43.3066 88.9153 42.8825 88.8901 42.4482C88.8648 42.0139 88.9312 41.5791 89.085 41.1722C89.2387 40.7652 89.4764 40.3952 89.7824 40.0861C90.0885 39.7769 90.4562 39.5357 90.8617 39.3779C91.2671 39.2202 91.7011 39.1495 92.1357 39.1704C92.5702 39.1914 92.9954 39.3035 93.3838 39.4995C93.7722 39.6955 94.1149 39.9711 94.3899 40.3082C94.6648 40.6453 94.8657 41.0366 94.9796 41.4564L104.493 66.1332C104.677 66.5285 104.78 66.9562 104.798 67.3918C104.816 67.8273 104.747 68.2621 104.596 68.671C104.445 69.0799 104.214 69.4549 103.918 69.7742C103.621 70.0936 103.264 70.3511 102.867 70.5318ZM120.835 78.986C120.003 79.2442 119.104 79.1644 118.33 78.764C117.557 78.3635 116.973 77.6745 116.705 76.8464L107.199 52.1696C106.999 51.7832 106.883 51.3591 106.858 50.9248C106.832 50.4905 106.899 50.0557 107.052 49.6488C107.206 49.2418 107.444 48.8718 107.75 48.5627C108.056 48.2535 108.424 48.0123 108.829 47.8545C109.234 47.6968 109.669 47.6261 110.103 47.647C110.538 47.668 110.963 47.7801 111.351 47.9761C111.74 48.1722 112.082 48.4477 112.357 48.7848C112.632 49.122 112.833 49.5131 112.947 49.933L122.453 74.6098C122.81 75.4024 122.841 76.304 122.538 77.1192C122.235 77.9343 121.623 78.5971 120.835 78.9637V78.986ZM138.795 87.4328C137.965 87.6931 137.066 87.6151 136.294 87.2157C135.522 86.8164 134.939 86.128 134.672 85.3006L125.166 60.6238C124.967 60.2374 124.85 59.8133 124.825 59.379C124.8 58.9447 124.866 58.51 125.02 58.103C125.174 57.6961 125.411 57.326 125.717 57.0169C126.023 56.7078 126.391 56.4665 126.796 56.3088C127.202 56.151 127.636 56.0803 128.071 56.1013C128.505 56.1222 128.93 56.2343 129.319 56.4304C129.707 56.6264 130.05 56.9019 130.325 57.239C130.6 57.5762 130.801 57.9674 130.914 58.3872L140.42 83.064C140.779 83.8562 140.81 84.7583 140.505 85.5729C140.2 86.3875 139.585 87.0482 138.795 87.4104V87.4328Z" fill="#0D6E20"/>
<path opacity="0.55" d="M80.1509 23.3477L83.9829 72.0228L147.063 103.849L157.791 62.5249L80.1509 23.3477ZM102.867 70.5318C102.037 70.7918 101.137 70.7127 100.365 70.3119C99.5924 69.911 99.01 69.2209 98.7446 68.3922L89.2315 43.693C89.0317 43.3066 88.9153 42.8825 88.8901 42.4482C88.8648 42.0139 88.9312 41.5791 89.085 41.1722C89.2387 40.7652 89.4764 40.3952 89.7824 40.0861C90.0885 39.7769 90.4562 39.5357 90.8617 39.3779C91.2671 39.2202 91.7011 39.1495 92.1357 39.1704C92.5702 39.1914 92.9954 39.3035 93.3838 39.4995C93.7722 39.6955 94.1149 39.9711 94.3899 40.3082C94.6648 40.6453 94.8657 41.0366 94.9796 41.4564L104.493 66.1332C104.677 66.5285 104.78 66.9562 104.798 67.3918C104.816 67.8273 104.747 68.2621 104.596 68.671C104.445 69.0799 104.214 69.4549 103.918 69.7742C103.621 70.0936 103.264 70.3511 102.867 70.5318ZM120.835 78.986C120.003 79.2442 119.104 79.1644 118.33 78.764C117.557 78.3635 116.973 77.6745 116.705 76.8464L107.199 52.1696C106.999 51.7832 106.883 51.3591 106.858 50.9248C106.832 50.4905 106.899 50.0557 107.052 49.6488C107.206 49.2418 107.444 48.8718 107.75 48.5627C108.056 48.2535 108.424 48.0123 108.829 47.8545C109.234 47.6968 109.669 47.6261 110.103 47.647C110.538 47.668 110.963 47.7801 111.351 47.9761C111.74 48.1722 112.082 48.4477 112.357 48.7848C112.632 49.122 112.833 49.5131 112.947 49.933L122.453 74.6098C122.81 75.4024 122.841 76.304 122.538 77.1192C122.235 77.9343 121.623 78.5971 120.835 78.9637V78.986ZM138.795 87.4328C137.965 87.6931 137.066 87.6151 136.294 87.2157C135.522 86.8164 134.939 86.128 134.672 85.3006L125.166 60.6238C124.967 60.2374 124.85 59.8133 124.825 59.379C124.8 58.9447 124.866 58.51 125.02 58.103C125.174 57.6961 125.411 57.326 125.717 57.0169C126.023 56.7078 126.391 56.4665 126.796 56.3088C127.202 56.151 127.636 56.0803 128.071 56.1013C128.505 56.1222 128.93 56.2343 129.319 56.4304C129.707 56.6264 130.05 56.9019 130.325 57.239C130.6 57.5762 130.801 57.9674 130.914 58.3872L140.42 83.064C140.779 83.8562 140.81 84.7583 140.505 85.5729C140.2 86.3875 139.585 87.0482 138.795 87.4104V87.4328Z" fill="white"/>
<path d="M83.9836 72.0156L47.6089 95.8425L110.696 127.669L147.063 103.849L83.9836 72.0156Z" fill="#0D6E20"/>
<path opacity="0.1" d="M83.9836 72.0156L47.6089 95.8425L110.696 127.669L147.063 103.849L83.9836 72.0156Z" fill="#00201E"/>
<path d="M54.5737 24.177L86.0643 6L109.161 19.3291L77.6709 37.5112L54.5737 24.177Z" fill="#0D6E20"/>
<path opacity="0.1" d="M54.5737 24.177L86.0643 6L109.161 19.3291L77.6709 37.5112L54.5737 24.177Z" fill="#00201E"/>
<path d="M85.761 8.60982L76.0963 14.1761C75.9206 14.2795 75.9671 14.4707 76.1997 14.6051L87.1151 20.9052C87.2247 20.9708 87.3477 21.0105 87.4749 21.0213C87.6021 21.032 87.7301 21.0135 87.849 20.9673L97.519 15.3958C97.6947 15.2924 97.6482 15.1064 97.4156 14.9668L86.5001 8.67184C86.3897 8.60616 86.2658 8.56645 86.1377 8.5557C86.0097 8.54496 85.8809 8.56346 85.761 8.60982Z" fill="#FAFAFA"/>
<path d="M90.6456 18.0832C90.6803 18.0838 90.7144 18.075 90.7445 18.0577C90.7745 18.0404 90.7993 18.0153 90.8162 17.985C90.8426 17.939 90.8498 17.8844 90.8362 17.8332C90.8227 17.7819 90.7895 17.738 90.7438 17.7111L81.6838 12.4807C81.6369 12.4561 81.5823 12.4504 81.5313 12.4648C81.4804 12.4793 81.4369 12.5127 81.4098 12.5583C81.385 12.6038 81.3787 12.6571 81.3922 12.7071C81.4057 12.7572 81.4379 12.8001 81.4822 12.827L90.5422 18.0573C90.5733 18.0761 90.6093 18.0852 90.6456 18.0832Z" fill="#E0E0E0"/>
<path d="M89.6377 18.6621C89.6722 18.6617 89.7059 18.6524 89.7358 18.6352C89.7657 18.618 89.7906 18.5935 89.8083 18.5639C89.822 18.5413 89.8311 18.5162 89.8349 18.49C89.8387 18.4638 89.8372 18.4371 89.8305 18.4115C89.8237 18.3859 89.8118 18.362 89.7956 18.3411C89.7794 18.3202 89.7591 18.3028 89.7359 18.29L80.6759 13.0596C80.6537 13.046 80.6289 13.037 80.6031 13.0332C80.5773 13.0295 80.5511 13.031 80.5259 13.0378C80.5007 13.0446 80.4772 13.0564 80.4568 13.0726C80.4363 13.0888 80.4194 13.109 80.4071 13.132C80.3933 13.1546 80.3843 13.1797 80.3805 13.2059C80.3767 13.2321 80.3782 13.2588 80.3849 13.2844C80.3917 13.31 80.4035 13.3339 80.4198 13.3548C80.436 13.3757 80.4563 13.3931 80.4795 13.4059L89.5395 18.6363C89.5697 18.6527 89.6034 18.6616 89.6377 18.6621Z" fill="#E0E0E0"/>
<path d="M88.6294 19.2358C88.6728 19.235 88.7147 19.2201 88.749 19.1936C88.7833 19.167 88.808 19.13 88.8196 19.0882C88.8313 19.0465 88.8291 19.002 88.8134 18.9616C88.7978 18.9211 88.7695 18.8868 88.7328 18.8637L79.6727 13.6334C79.6265 13.6083 79.5723 13.6018 79.5214 13.6153C79.4705 13.6287 79.4267 13.6611 79.3988 13.7057C79.3724 13.7517 79.3652 13.8063 79.3788 13.8576C79.3923 13.9088 79.4255 13.9527 79.4712 13.9797L88.5312 19.21C88.5607 19.2281 88.5949 19.2371 88.6294 19.2358Z" fill="#E0E0E0"/>
<path d="M87.6265 19.8153C87.6609 19.8148 87.6947 19.8056 87.7246 19.7884C87.7544 19.7712 87.7794 19.7466 87.797 19.7171C87.8108 19.6945 87.8199 19.6693 87.8237 19.6431C87.8275 19.617 87.826 19.5903 87.8192 19.5647C87.8125 19.5391 87.8006 19.5151 87.7844 19.4943C87.7681 19.4734 87.7478 19.456 87.7247 19.4431L78.6646 14.2335C78.6424 14.2198 78.6177 14.2108 78.5919 14.2071C78.5661 14.2033 78.5398 14.2049 78.5147 14.2117C78.4895 14.2184 78.466 14.2303 78.4455 14.2465C78.4251 14.2627 78.4082 14.2829 78.3959 14.3058C78.3821 14.3284 78.373 14.3536 78.3692 14.3798C78.3654 14.4059 78.3669 14.4326 78.3737 14.4582C78.3805 14.4838 78.3923 14.5078 78.4086 14.5286C78.4248 14.5495 78.4451 14.5669 78.4682 14.5798L87.5231 19.8101C87.5569 19.8189 87.592 19.8207 87.6265 19.8153Z" fill="#E0E0E0"/>
<path d="M96.6042 15.143L96.2527 14.9414L92.1284 17.324L92.4799 17.5256L96.6042 15.143Z" fill="#455A64"/>
<path d="M95.1724 14.316L94.5574 13.9697L90.4331 16.3523L91.043 16.6986L95.1724 14.316Z" fill="#455A64"/>
<path d="M93.736 13.489L93.3846 13.2822L89.2603 15.6648L89.6117 15.8715L93.736 13.489Z" fill="#455A64"/>
<path d="M92.6618 12.8582L91.9537 12.4551L87.8242 14.8377L88.5374 15.2408L92.6618 12.8582Z" fill="#455A64"/>
<path d="M90.8659 11.8295L90.5145 11.6279L86.3901 14.0105L86.7416 14.2121L90.8659 11.8295Z" fill="#455A64"/>
<path d="M89.8438 11.2307L89.0841 10.8018L84.9546 13.1844L85.7195 13.6133L89.8438 11.2307Z" fill="#455A64"/>
<path d="M88.0002 10.1765L87.6487 9.96973L83.5244 12.3523L83.8759 12.559L88.0002 10.1765Z" fill="#455A64"/>
<path d="M87.1877 9.70004L87.012 9.59668L82.8877 11.9793L83.0634 12.0826L87.1877 9.70004Z" fill="#455A64"/>
<path d="M88.6343 10.5633L88.4586 10.46L84.3291 12.8426L84.51 12.9459L88.6343 10.5633Z" fill="#455A64"/>
<path d="M91.5391 12.2225L91.3634 12.1191L87.2339 14.5017L87.4148 14.6051L91.5391 12.2225Z" fill="#455A64"/>
<path d="M93.1145 13.1373L92.9388 13.0391L88.8145 15.4165L88.9902 15.5199L93.1145 13.1373Z" fill="#455A64"/>
<path d="M94.2354 13.8045L94.0597 13.7012L89.9302 16.0889L90.1059 16.1871L94.2354 13.8045Z" fill="#455A64"/>
<path d="M95.8081 14.6776L95.6324 14.5742L91.5029 16.9568L91.6787 17.0602L95.8081 14.6776Z" fill="#455A64"/>
<path d="M86.5693 9.34414L86.2179 9.14258L82.0884 11.5252L82.4398 11.7319L86.5693 9.34414Z" fill="#455A64"/>
<path d="M77.6709 100.549L54.5737 87.2147V24.1768L77.6709 37.511V100.549Z" fill="#0D6E20"/>
<g opacity="0.2">
<path d="M77.6704 100.549L54.5732 87.2147V24.1768L77.6704 37.511V100.549Z" fill="#00201E"/>
</g>
<path d="M77.6733 100.549L109.164 82.367V19.3291L77.6733 37.5112V100.549Z" fill="#0D6E20"/>
<path opacity="0.3" d="M77.6733 100.549L109.164 82.367V19.3291L77.6733 37.5112V100.549Z" fill="#00201E"/>
<path d="M94.4646 32.5599L91.4102 34.3223V29.5778L94.4646 27.8154V32.5599Z" fill="#117325"/>
<path d="M91.4118 29.5781L68.3198 16.249L71.3743 14.4814L94.4663 27.8157L91.4118 29.5781Z" fill="#158B2D"/>
<path d="M60.4308 85.618C60.0994 85.3834 59.828 85.0739 59.6385 84.7147C59.449 84.3555 59.3469 83.9567 59.3403 83.5507V80.3877L61.5575 81.6901H61.7023V81.902V84.7291C61.7219 84.9127 61.692 85.0982 61.6156 85.2664C61.5393 85.4345 61.4193 85.5792 61.2681 85.6852C61.1633 85.7473 61.0436 85.7794 60.9218 85.7782C60.7473 85.7672 60.5783 85.7121 60.4308 85.618ZM60.6789 82.2121L60.5187 83.3233H59.6969V83.5559C59.7047 83.8985 59.7913 84.2348 59.9499 84.5386C60.1085 84.8425 60.335 85.1057 60.6117 85.3079C60.6799 85.3586 60.7601 85.3905 60.8445 85.4005C60.9288 85.4105 61.0143 85.3981 61.0924 85.3648C61.1854 85.2858 61.2573 85.1849 61.3015 85.0712C61.3457 84.9575 61.3609 84.8346 61.3456 84.7136V82.0932L60.6789 82.2121ZM60.3637 81.9072L61.02 81.7935L59.6969 81.0131V82.9719H60.2138L60.3637 81.9072Z" fill="white"/>
<path d="M60.5246 88.016C60.5712 88.016 60.6159 87.9975 60.6489 87.9645C60.6818 87.9316 60.7004 87.8869 60.7004 87.8403V85.4628C60.7004 85.4162 60.6818 85.3715 60.6489 85.3386C60.6159 85.3056 60.5712 85.2871 60.5246 85.2871C60.4776 85.2871 60.4323 85.3054 60.3985 85.3382C60.3647 85.3711 60.3451 85.4158 60.3438 85.4628V87.8403C60.3451 87.8873 60.3647 87.932 60.3985 87.9648C60.4323 87.9976 60.4776 88.016 60.5246 88.016Z" fill="white"/>
<path d="M61.5546 88.6103C61.5943 88.6115 61.6331 88.5993 61.6649 88.5756C61.6967 88.5519 61.7196 88.5181 61.7298 88.4798C61.74 88.4415 61.7369 88.4008 61.721 88.3645C61.7052 88.3281 61.6775 88.2982 61.6425 88.2795L59.5752 87.0857C59.5548 87.0741 59.5324 87.0667 59.5091 87.0638C59.4859 87.061 59.4623 87.0627 59.4398 87.069C59.4172 87.0752 59.3961 87.0858 59.3777 87.1002C59.3592 87.1146 59.3438 87.1325 59.3322 87.1528C59.3207 87.1732 59.3133 87.1956 59.3104 87.2189C59.3076 87.2421 59.3093 87.2657 59.3155 87.2882C59.3218 87.3108 59.3324 87.3319 59.3468 87.3503C59.3612 87.3688 59.3791 87.3842 59.3994 87.3958L61.4668 88.5845C61.4921 88.6031 61.5232 88.6123 61.5546 88.6103Z" fill="white"/>
<path d="M67.737 92.2742C67.8052 92.2748 67.8726 92.2588 67.9334 92.2277C68.0031 92.1809 68.0593 92.1167 68.0965 92.0415C68.1337 91.9662 68.1505 91.8825 68.1453 91.7987V91.3129C68.1497 91.287 68.1484 91.2604 68.1415 91.2349C68.1346 91.2095 68.1222 91.1859 68.1052 91.1658C68.0883 91.1457 68.0671 91.1295 68.0432 91.1184C68.0193 91.1073 67.9933 91.1016 67.967 91.1016C67.9406 91.1016 67.9146 91.1073 67.8907 91.1184C67.8669 91.1295 67.8457 91.1457 67.8287 91.1658C67.8117 91.1859 67.7993 91.2095 67.7924 91.2349C67.7855 91.2604 67.7842 91.287 67.7887 91.3129V91.7987C67.793 91.8408 67.782 91.883 67.7577 91.9176C67.7155 91.9229 67.673 91.9118 67.6388 91.8866C67.5289 91.785 67.4425 91.6607 67.3854 91.5224C67.3283 91.3841 67.3019 91.235 67.308 91.0855V87.9328C67.308 87.8858 67.2897 87.8405 67.2569 87.8067C67.2241 87.773 67.1794 87.7533 67.1323 87.752C67.1085 87.752 67.085 87.7566 67.0631 87.7657C67.0411 87.7748 67.0212 87.7881 67.0044 87.8049C66.9876 87.8217 66.9743 87.8417 66.9652 87.8636C66.9561 87.8856 66.9514 87.9091 66.9514 87.9328V91.0907C66.9445 91.3027 66.9877 91.5133 67.0775 91.7055C67.1673 91.8977 67.3012 92.066 67.4682 92.1967C67.549 92.2468 67.642 92.2736 67.737 92.2742Z" fill="white"/>
<path d="M64.8861 86.7908V86.6875C64.8331 86.3829 64.875 86.0693 65.0061 85.7893C65.1371 85.5093 65.351 85.2763 65.6188 85.1218C65.8866 84.9673 66.1954 84.8988 66.5035 84.9256C66.8115 84.9523 67.1038 85.073 67.341 85.2713C68.0015 85.7039 68.5511 86.2857 68.9452 86.9698C69.3394 87.6539 69.567 88.4212 69.6099 89.2096V89.5197L64.8861 86.7908ZM65.7957 85.4264C65.6121 85.5571 65.4649 85.7325 65.3682 85.936C65.2714 86.1395 65.2282 86.3644 65.2427 86.5893L69.2378 88.8943C69.1516 88.226 68.9223 87.5841 68.5655 87.0124C68.2087 86.4407 67.7329 85.9526 67.1704 85.5814C66.9042 85.4159 66.5999 85.3216 66.2867 85.3075C66.1154 85.3034 65.9461 85.3444 65.7957 85.4264Z" fill="white"/>
<path d="M74.8813 96.2646C74.9284 96.2646 74.9736 96.2462 75.0074 96.2134C75.0412 96.1806 75.0608 96.1359 75.0622 96.0889V90.0419C75.0608 89.9949 75.0412 89.9502 75.0074 89.9174C74.9736 89.8845 74.9284 89.8662 74.8813 89.8662C74.8347 89.8662 74.79 89.8847 74.757 89.9177C74.7241 89.9506 74.7056 89.9953 74.7056 90.0419V96.0889C74.7056 96.1355 74.7241 96.1802 74.757 96.2131C74.79 96.2461 74.8347 96.2646 74.8813 96.2646Z" fill="#455A64"/>
<path d="M75.4046 91.4218C75.4285 91.4267 75.4531 91.4267 75.477 91.4218C75.498 91.4123 75.517 91.3988 75.5328 91.3819C75.5486 91.3651 75.561 91.3453 75.5691 91.3237C75.5773 91.3021 75.5811 91.2791 75.5804 91.2561C75.5796 91.233 75.5744 91.2103 75.5649 91.1892L74.9343 89.6904L74.2314 90.507C74.1986 90.54 74.1802 90.5846 74.1802 90.6311C74.1802 90.6776 74.1986 90.7222 74.2314 90.7551C74.2658 90.7871 74.3111 90.8048 74.3581 90.8048C74.405 90.8048 74.4503 90.7871 74.4847 90.7551L74.8154 90.3675L75.2237 91.3081C75.2386 91.3434 75.2639 91.3732 75.2962 91.3935C75.3286 91.4139 75.3665 91.4237 75.4046 91.4218Z" fill="#455A64"/>
<path d="M73.2402 95.3293C73.2873 95.3293 73.3325 95.311 73.3663 95.2782C73.4001 95.2454 73.4197 95.2007 73.4211 95.1536V89.1067C73.4211 89.0587 73.402 89.0127 73.3681 88.9788C73.3342 88.9448 73.2881 88.9258 73.2402 88.9258C73.1931 88.9271 73.1484 88.9468 73.1156 88.9806C73.0828 89.0143 73.0644 89.0596 73.0645 89.1067V95.1536C73.0645 95.2002 73.083 95.2449 73.1159 95.2779C73.1489 95.3108 73.1936 95.3293 73.2402 95.3293Z" fill="#455A64"/>
<path d="M73.7601 90.4809C73.7839 90.4859 73.8086 90.4859 73.8324 90.4809C73.8753 90.4606 73.9089 90.4247 73.9262 90.3805C73.9435 90.3363 73.9432 90.2872 73.9255 90.2432L73.2794 88.7754L72.5765 89.5868C72.5613 89.6045 72.5496 89.6249 72.5423 89.6471C72.5349 89.6692 72.532 89.6926 72.5337 89.7159C72.5353 89.7392 72.5416 89.7619 72.5521 89.7827C72.5625 89.8036 72.577 89.8222 72.5946 89.8375C72.6123 89.8527 72.6328 89.8644 72.6549 89.8717C72.677 89.8791 72.7004 89.882 72.7237 89.8803C72.747 89.8787 72.7697 89.8724 72.7906 89.862C72.8114 89.8515 72.83 89.837 72.8453 89.8194L73.1761 89.4318L73.5844 90.3776C73.5999 90.4105 73.6249 90.4379 73.6563 90.4564C73.6876 90.4748 73.7238 90.4834 73.7601 90.4809Z" fill="#455A64"/>
<path d="M75.5717 76.9658V84.7906C75.5717 85.0956 75.3598 85.2144 75.1014 85.0646L62.8783 78.0098C62.7392 77.9208 62.6234 77.7997 62.5407 77.6568C62.4579 77.5138 62.4107 77.3531 62.4028 77.1881V69.3581C62.4028 69.0531 62.6096 68.9343 62.8732 69.0841L75.0962 76.1441C75.2354 76.2331 75.3511 76.3541 75.4339 76.4971C75.5166 76.6401 75.5639 76.8008 75.5717 76.9658Z" fill="#FAFAFA"/>
<path d="M63.1597 70.2061L63.5525 70.4335V77.5502L63.1597 77.3228V70.2061Z" fill="#455A64"/>
<path d="M64.769 71.1309L65.4461 71.534V78.6508L64.769 78.2476V71.1309Z" fill="#455A64"/>
<path d="M66.3774 72.0615L66.7702 72.2889V79.4057L66.3774 79.1783V72.0615Z" fill="#455A64"/>
<path d="M67.5835 72.7432L68.3742 73.2135V80.3303L67.5835 79.8651V72.7432Z" fill="#455A64"/>
<path d="M69.5854 73.9111L69.9834 74.1437V81.2605L69.5854 81.0331V73.9111Z" fill="#455A64"/>
<path d="M70.7422 74.5684L71.5846 75.0697V82.1865L70.7422 81.6851V74.5684Z" fill="#455A64"/>
<path d="M72.7979 75.7666L73.1906 75.994V83.1108L72.7979 82.8834V75.7666Z" fill="#455A64"/>
<path d="M73.7158 76.2891L73.9122 76.4028V83.5195L73.7158 83.4058V76.2891Z" fill="#455A64"/>
<path d="M72.0649 75.3789L72.2613 75.4926V82.6094L72.0649 82.4957V75.3789Z" fill="#455A64"/>
<path d="M68.8325 73.4824L69.0289 73.6013V80.7129L68.8325 80.6044V73.4824Z" fill="#455A64"/>
<path d="M67.0562 72.4697L67.2525 72.5834V79.7002L67.0562 79.5865V72.4697Z" fill="#455A64"/>
<path d="M65.7852 71.7666L65.9816 71.8803V78.9971L65.7852 78.8834V71.7666Z" fill="#455A64"/>
<path d="M64.0586 70.7178L64.255 70.8315V77.9482L64.0586 77.8345V70.7178Z" fill="#455A64"/>
<path d="M74.4062 76.6973L74.799 76.9247V84.0414L74.4062 83.814V76.6973Z" fill="#455A64"/>
<path d="M77.7036 69.5447L109.103 51.418L132.125 64.7116L100.731 82.8384L77.7036 69.5447Z" fill="#0D6E20"/>
<g opacity="0.3">
<path d="M77.7031 69.5447L109.103 51.418L132.125 64.7116L100.73 82.8384L77.7031 69.5447Z" fill="white"/>
</g>
<path d="M108.8 54.0249L99.1643 59.5742C98.9892 59.6773 99.0355 59.8679 99.2674 60.0019L110.15 66.2829C110.26 66.349 110.383 66.3886 110.511 66.3984C110.639 66.4082 110.768 66.3881 110.886 66.3396L120.522 60.7902C120.697 60.6872 120.651 60.4965 120.419 60.3626L109.536 54.0867C109.427 54.0186 109.304 53.9775 109.176 53.9667C109.047 53.9559 108.919 53.9759 108.8 54.0249Z" fill="#FAFAFA"/>
<path d="M113.665 63.4699C113.7 63.4695 113.733 63.4603 113.763 63.4431C113.793 63.426 113.818 63.4015 113.835 63.372C113.849 63.3495 113.858 63.3244 113.862 63.2983C113.866 63.2722 113.864 63.2456 113.858 63.2201C113.851 63.1946 113.839 63.1707 113.823 63.1499C113.807 63.1291 113.786 63.1117 113.763 63.0989L104.731 57.8897C104.686 57.8729 104.637 57.8727 104.592 57.889C104.547 57.9054 104.509 57.9372 104.486 57.9788C104.462 58.0204 104.454 58.069 104.463 58.1159C104.472 58.1629 104.498 58.2051 104.535 58.2349L113.562 63.4493C113.595 63.4633 113.63 63.4703 113.665 63.4699Z" fill="#E0E0E0"/>
<path d="M112.661 64.0724C112.697 64.0723 112.732 64.0628 112.763 64.0446C112.794 64.0265 112.819 64.0005 112.837 63.9693C112.861 63.9226 112.867 63.8682 112.852 63.8174C112.838 63.7666 112.805 63.7232 112.759 63.6962L103.732 58.4561C103.686 58.4302 103.631 58.4238 103.58 58.4383C103.528 58.4527 103.485 58.4869 103.459 58.5334C103.446 58.5557 103.438 58.5803 103.434 58.6059C103.431 58.6314 103.433 58.6574 103.439 58.6823C103.446 58.7072 103.458 58.7305 103.473 58.751C103.489 58.7714 103.509 58.7885 103.531 58.8013L112.564 64.0157C112.589 64.0446 112.624 64.0645 112.661 64.0724Z" fill="#E0E0E0"/>
<path d="M111.662 64.6189C111.705 64.617 111.746 64.6015 111.779 64.5746C111.813 64.5477 111.837 64.5109 111.848 64.4694C111.859 64.428 111.856 64.3842 111.84 64.3443C111.825 64.3045 111.796 64.2707 111.76 64.2479L102.728 59.0335C102.682 59.0072 102.627 59 102.576 59.0135C102.525 59.027 102.481 59.0601 102.455 59.1056C102.43 59.1518 102.423 59.2057 102.437 59.2565C102.45 59.3072 102.482 59.351 102.527 59.3787L111.559 64.588C111.591 64.6061 111.626 64.6166 111.662 64.6189Z" fill="#E0E0E0"/>
<path d="M110.657 65.1955C110.692 65.1951 110.727 65.1853 110.756 65.1672C110.786 65.1491 110.811 65.1233 110.827 65.0925C110.841 65.07 110.85 65.0449 110.854 65.0188C110.858 64.9927 110.856 64.9661 110.85 64.9406C110.843 64.9151 110.831 64.8912 110.815 64.8704C110.799 64.8496 110.778 64.8322 110.755 64.8194L101.723 59.6101C101.7 59.5973 101.676 59.589 101.65 59.5856C101.625 59.5823 101.599 59.584 101.574 59.5907C101.549 59.5974 101.526 59.609 101.505 59.6247C101.485 59.6404 101.468 59.66 101.455 59.6823C101.442 59.7046 101.434 59.7293 101.43 59.7548C101.427 59.7804 101.429 59.8063 101.435 59.8312C101.442 59.8561 101.454 59.8794 101.469 59.8998C101.485 59.9202 101.505 59.9374 101.527 59.9502L110.559 65.1646C110.588 65.1848 110.622 65.1956 110.657 65.1955Z" fill="#E0E0E0"/>
<path d="M119.605 60.5381L119.255 60.332L115.143 62.7125L115.493 62.9135L119.605 60.5381Z" fill="#455A64"/>
<path d="M118.177 59.7137L117.569 59.3633L113.452 61.7386L114.065 62.089L118.177 59.7137Z" fill="#455A64"/>
<path d="M116.747 58.8845L116.396 58.6836L112.285 61.0589L112.635 61.2599L116.747 58.8845Z" fill="#455A64"/>
<path d="M115.679 58.2603L114.967 57.8584L110.851 60.2337L111.562 60.6356L115.679 58.2603Z" fill="#455A64"/>
<path d="M113.891 57.2354L113.536 57.0293L109.424 59.4046L109.774 59.6107L113.891 57.2354Z" fill="#455A64"/>
<path d="M112.868 56.6327L112.111 56.2051L107.999 58.5804L108.756 59.0132L112.868 56.6327Z" fill="#455A64"/>
<path d="M111.034 55.5818L110.684 55.3809L106.567 57.7562L106.917 57.9572L111.034 55.5818Z" fill="#455A64"/>
<path d="M110.219 55.1128L110.044 55.0098L105.932 57.3851L106.107 57.483L110.219 55.1128Z" fill="#455A64"/>
<path d="M111.66 55.9732L111.485 55.8701L107.374 58.2455L107.549 58.3485L111.66 55.9732Z" fill="#455A64"/>
<path d="M114.56 57.6265L114.385 57.5234L110.273 59.8988L110.448 60.0018L114.56 57.6265Z" fill="#455A64"/>
<path d="M116.132 58.5386L115.957 58.4355L111.84 60.8109L112.016 60.9139L116.132 58.5386Z" fill="#455A64"/>
<path d="M117.247 59.2036L117.072 59.1006L112.96 61.4759L113.13 61.579L117.247 59.2036Z" fill="#455A64"/>
<path d="M118.814 60.0747L118.638 59.9717L114.521 62.347L114.697 62.4501L118.814 60.0747Z" fill="#455A64"/>
<path d="M109.599 54.7566L109.248 54.5557L105.137 56.931L105.487 57.132L109.599 54.7566Z" fill="#455A64"/>
<path d="M100.73 113.419L77.7036 100.126V69.5449L100.73 82.8386V113.419Z" fill="#0D6E20"/>
<path d="M100.73 113.419L77.7036 100.126V69.5449L100.73 82.8386V113.419Z" fill="#0D6E20"/>
<path d="M100.733 113.419L132.128 95.2925V64.7119L100.733 82.8387V113.419Z" fill="#0D6E20"/>
<path opacity="0.1" d="M100.733 113.419L132.128 95.2925V64.7119L100.733 82.8387V113.419Z" fill="#00201E"/>
<path d="M117.474 77.8968L114.429 79.659V74.9289L117.474 73.1719V77.8968Z" fill="#117325"/>
<path d="M114.429 74.9296L91.4072 61.6359L94.4524 59.8789L117.474 73.1726L114.429 74.9296Z" fill="#1E8C33"/>
<path d="M129.223 92.3501C129.145 92.3488 129.067 92.3294 128.997 92.2934C128.898 92.2215 128.821 92.1252 128.771 92.0141C128.721 91.903 128.701 91.7808 128.713 91.6597V89.8047V89.6708H128.806L130.264 88.8154V90.8765C130.261 91.143 130.194 91.4048 130.07 91.6405C129.945 91.8761 129.766 92.0787 129.548 92.2316C129.452 92.2984 129.34 92.3392 129.223 92.3501ZM128.945 89.9438V91.6597C128.935 91.7395 128.945 91.8207 128.975 91.8955C129.005 91.9703 129.053 92.0363 129.115 92.0873C129.166 92.1096 129.222 92.1181 129.277 92.1117C129.332 92.1054 129.385 92.0845 129.43 92.0513C129.611 91.9184 129.759 91.7457 129.862 91.5465C129.966 91.3472 130.022 91.1268 130.027 90.9022V90.7476H129.512L129.404 90.0211L128.945 89.9438ZM129.692 90.5158H130.027V89.2328L129.162 89.748L129.589 89.8253L129.692 90.5158Z" fill="#455A64"/>
<path d="M129.483 93.8286C129.468 93.8286 129.453 93.8257 129.439 93.82C129.426 93.8143 129.413 93.8059 129.402 93.7954C129.392 93.7849 129.384 93.7724 129.378 93.7586C129.372 93.7449 129.369 93.7301 129.369 93.7152V92.1695C129.366 92.1522 129.366 92.1343 129.37 92.1172C129.374 92.1 129.382 92.084 129.393 92.0703C129.404 92.0566 129.418 92.0455 129.434 92.0379C129.45 92.0303 129.468 92.0264 129.485 92.0264C129.503 92.0264 129.52 92.0303 129.536 92.0379C129.552 92.0455 129.566 92.0566 129.577 92.0703C129.588 92.084 129.596 92.1 129.6 92.1172C129.605 92.1343 129.605 92.1522 129.601 92.1695V93.7152C129.601 93.7306 129.598 93.7457 129.592 93.7598C129.586 93.7739 129.577 93.7867 129.566 93.7973C129.555 93.8079 129.542 93.8161 129.528 93.8215C129.513 93.8269 129.498 93.8293 129.483 93.8286Z" fill="#455A64"/>
<path d="M128.815 94.2202C128.795 94.2205 128.774 94.2155 128.756 94.2055C128.738 94.1956 128.723 94.1811 128.712 94.1635C128.697 94.1367 128.693 94.1051 128.701 94.0753C128.708 94.0455 128.727 94.0198 128.754 94.0038L130.109 93.2206C130.135 93.2054 130.167 93.2011 130.197 93.2088C130.227 93.2165 130.252 93.2355 130.268 93.2618C130.277 93.2749 130.282 93.2895 130.284 93.3048C130.287 93.32 130.286 93.3356 130.282 93.3506C130.278 93.3655 130.271 93.3795 130.262 93.3917C130.253 93.4039 130.241 93.4141 130.227 93.4215L128.872 94.2047C128.855 94.2146 128.835 94.2199 128.815 94.2202Z" fill="#455A64"/>
<path d="M124.743 96.6321C124.698 96.6323 124.654 96.6217 124.614 96.6012C124.568 96.5704 124.531 96.528 124.506 96.4782C124.482 96.4284 124.471 96.3731 124.475 96.3178V96.0189C124.475 95.9875 124.487 95.9573 124.51 95.9351C124.532 95.9129 124.562 95.9004 124.593 95.9004C124.624 95.9017 124.654 95.9146 124.676 95.9365C124.698 95.9585 124.711 95.9879 124.712 96.0189V96.3384C124.712 96.3899 124.712 96.4105 124.712 96.4157C124.712 96.4208 124.748 96.4157 124.789 96.4157C124.859 96.3496 124.915 96.2696 124.952 96.1809C124.989 96.0922 125.007 95.9966 125.006 95.9004V93.8394C125.002 93.8221 125.002 93.8042 125.006 93.7871C125.01 93.7699 125.018 93.7539 125.029 93.7402C125.041 93.7265 125.055 93.7154 125.071 93.7078C125.086 93.7002 125.104 93.6963 125.122 93.6963C125.139 93.6963 125.157 93.7002 125.173 93.7078C125.188 93.7154 125.203 93.7265 125.214 93.7402C125.225 93.7539 125.233 93.7699 125.237 93.7871C125.241 93.8042 125.241 93.8221 125.237 93.8394V95.9004C125.243 96.0388 125.216 96.1765 125.158 96.3026C125.101 96.4287 125.015 96.5398 124.908 96.6269C124.854 96.6428 124.797 96.6446 124.743 96.6321Z" fill="#455A64"/>
<path d="M123.518 94.8185V94.6175C123.546 94.1014 123.696 93.5991 123.954 93.1516C124.213 92.704 124.574 92.3236 125.007 92.0412C125.162 91.91 125.354 91.8298 125.556 91.8116C125.759 91.7934 125.962 91.838 126.138 91.9393C126.315 92.0407 126.455 92.1939 126.541 92.3781C126.627 92.5623 126.655 92.7685 126.619 92.9687V93.0357L123.518 94.8185ZM125.723 92.0515C125.517 92.0606 125.316 92.1227 125.141 92.2319C124.771 92.4753 124.457 92.7955 124.222 93.1706C123.986 93.5458 123.834 93.9672 123.775 94.4063L126.398 92.8914C126.408 92.7448 126.381 92.5979 126.317 92.4651C126.254 92.3324 126.158 92.2183 126.037 92.134C125.942 92.0772 125.833 92.0486 125.723 92.0515Z" fill="#455A64"/>
<path d="M120.055 99.2496C120.041 99.2496 120.026 99.2467 120.012 99.241C119.998 99.2353 119.986 99.2269 119.975 99.2164C119.965 99.2059 119.956 99.1934 119.951 99.1796C119.945 99.1659 119.942 99.1511 119.942 99.1362V95.1636C119.938 95.1463 119.939 95.1285 119.943 95.1113C119.947 95.0941 119.955 95.0781 119.966 95.0644C119.977 95.0507 119.991 95.0396 120.007 95.032C120.023 95.0244 120.04 95.0205 120.058 95.0205C120.076 95.0205 120.093 95.0244 120.109 95.032C120.125 95.0396 120.139 95.0507 120.15 95.0644C120.161 95.0781 120.169 95.0941 120.173 95.1113C120.177 95.1285 120.178 95.1463 120.174 95.1636V99.1362C120.174 99.1516 120.171 99.1667 120.165 99.1808C120.159 99.1949 120.15 99.2077 120.139 99.2183C120.128 99.2289 120.115 99.2371 120.1 99.2425C120.086 99.2479 120.071 99.2503 120.055 99.2496Z" fill="#455A64"/>
<path d="M119.712 96.0651H119.666C119.639 96.0508 119.618 96.0275 119.606 95.9992C119.595 95.9709 119.594 95.9395 119.604 95.9105L120.021 94.9521L120.485 95.4674C120.5 95.4912 120.505 95.5194 120.501 95.5471C120.497 95.5748 120.483 95.6001 120.463 95.6186C120.442 95.6371 120.415 95.6476 120.387 95.6482C120.359 95.6488 120.331 95.6396 120.31 95.622L120.088 95.3695L119.82 95.9878C119.812 96.01 119.797 96.0293 119.778 96.0431C119.759 96.0569 119.736 96.0645 119.712 96.0651Z" fill="#455A64"/>
<path d="M121.133 98.6364C121.117 98.6364 121.102 98.6334 121.087 98.6274C121.073 98.6214 121.06 98.6127 121.049 98.6017C121.038 98.5907 121.029 98.5776 121.023 98.5633C121.017 98.5489 121.014 98.5335 121.014 98.5179V94.5453C121.015 94.5142 121.028 94.4848 121.05 94.4629C121.072 94.4409 121.102 94.428 121.133 94.4268C121.164 94.4268 121.194 94.4392 121.216 94.4615C121.239 94.4837 121.251 94.5138 121.251 94.5453V98.5179C121.251 98.5493 121.239 98.5795 121.216 98.6017C121.194 98.6239 121.164 98.6364 121.133 98.6364Z" fill="#455A64"/>
<path d="M120.793 95.4518H120.747C120.732 95.4462 120.719 95.4377 120.708 95.4267C120.696 95.4157 120.688 95.4026 120.682 95.3881C120.676 95.3735 120.673 95.358 120.674 95.3424C120.674 95.3267 120.678 95.3114 120.685 95.2973L121.102 94.3389L121.561 94.8541C121.572 94.8647 121.581 94.8775 121.587 94.8917C121.593 94.9059 121.596 94.9211 121.596 94.9366C121.596 94.952 121.593 94.9673 121.587 94.9815C121.581 94.9956 121.572 95.0084 121.561 95.019C121.539 95.0404 121.509 95.0524 121.478 95.0524C121.448 95.0524 121.418 95.0404 121.396 95.019L121.179 94.7614L120.906 95.3797C120.898 95.4027 120.883 95.4224 120.862 95.4355C120.842 95.4486 120.817 95.4543 120.793 95.4518Z" fill="#455A64"/>
<path d="M103.207 100.78V108.586C103.207 108.885 103.418 109.008 103.675 108.859L115.861 101.826C116 101.737 116.115 101.616 116.198 101.474C116.28 101.331 116.328 101.171 116.335 101.006V93.1951C116.335 92.8962 116.124 92.7726 115.861 92.9272L103.675 99.9656C103.538 100.054 103.424 100.175 103.343 100.316C103.261 100.458 103.215 100.617 103.207 100.78Z" fill="#FAFAFA"/>
<path d="M115.576 94.0449L115.184 94.2716V101.367L115.576 101.14V94.0449Z" fill="#455A64"/>
<path d="M113.977 94.9678L113.302 95.3645V102.46L113.977 102.063V94.9678Z" fill="#455A64"/>
<path d="M112.374 95.8896L111.977 96.1164V103.211L112.374 102.985V95.8896Z" fill="#455A64"/>
<path d="M111.167 96.5752L110.378 97.0441V104.139L111.167 103.67V96.5752Z" fill="#455A64"/>
<path d="M109.169 97.7393L108.778 97.966V105.061L109.169 104.834V97.7393Z" fill="#455A64"/>
<path d="M108.021 98.3887L107.181 98.8885V105.989L108.021 105.484V98.3887Z" fill="#455A64"/>
<path d="M105.969 99.5898L105.577 99.8166V106.912L105.969 106.685V99.5898Z" fill="#455A64"/>
<path d="M105.057 100.109L104.861 100.223V107.318L105.057 107.204V100.109Z" fill="#455A64"/>
<path d="M106.7 99.2031L106.504 99.3165V106.412L106.7 106.298V99.2031Z" fill="#455A64"/>
<path d="M109.925 97.3115L109.729 97.4249V104.52L109.925 104.407V97.3115Z" fill="#455A64"/>
<path d="M111.694 96.2969L111.498 96.4102V103.505L111.694 103.392V96.2969Z" fill="#455A64"/>
<path d="M112.961 95.5967L112.766 95.71V102.805L112.961 102.692V95.5967Z" fill="#455A64"/>
<path d="M114.682 94.5508L114.486 94.6693V101.764L114.682 101.651V94.5508Z" fill="#455A64"/>
<path d="M104.368 100.512L103.977 100.738V107.834L104.368 107.607V100.512Z" fill="#455A64"/>
<path d="M43.7861 47.1748L47.6182 95.8798L110.698 127.706L121.426 86.3744L43.7861 47.1748ZM66.5026 94.3366C65.6721 94.5971 64.7723 94.5193 63.9989 94.1201C63.2254 93.7208 62.6409 93.0323 62.3723 92.2044L52.8668 67.5499C52.6669 67.1635 52.5506 66.7394 52.5253 66.3051C52.5001 65.8709 52.5665 65.4361 52.7202 65.0292C52.874 64.6222 53.1116 64.2522 53.4177 63.943C53.7238 63.6339 54.0915 63.3927 54.4969 63.2349C54.9023 63.0772 55.3364 63.0065 55.7709 63.0274C56.2054 63.0484 56.6307 63.1605 57.0191 63.3565C57.4074 63.5525 57.7502 63.8281 58.0251 64.1652C58.3001 64.5023 58.501 64.8935 58.6148 65.3134L68.1204 89.9902C68.4779 90.7817 68.5086 91.6823 68.2056 92.4962C67.9026 93.3101 67.2906 93.9715 66.5026 94.3366ZM84.4626 102.791C83.6331 103.051 82.7343 102.973 81.9621 102.574C81.1898 102.174 80.6067 101.486 80.3398 100.659L70.8342 75.9818C70.6343 75.5954 70.518 75.1713 70.4928 74.737C70.4675 74.3027 70.5339 73.868 70.6877 73.461C70.8414 73.0541 71.079 72.684 71.3851 72.3749C71.6912 72.0658 72.0589 71.8245 72.4643 71.6668C72.8697 71.509 73.3038 71.4383 73.7383 71.4593C74.1729 71.4802 74.5981 71.5924 74.9865 71.7884C75.3748 71.9844 75.7176 72.2599 75.9925 72.5971C76.2675 72.9342 76.4684 73.3254 76.5823 73.7452L86.0878 98.4221C86.2691 98.8154 86.3709 99.2408 86.3872 99.6736C86.4036 100.106 86.3343 100.538 86.1832 100.944C86.0322 101.35 85.8025 101.722 85.5072 102.039C85.2119 102.356 84.8569 102.612 84.4626 102.791ZM102.43 111.245C101.6 111.505 100.7 111.426 99.9275 111.025C99.1551 110.624 98.5726 109.934 98.3072 109.105L88.8016 84.4286C88.6018 84.0422 88.4854 83.6181 88.4602 83.1838C88.435 82.7495 88.5013 82.3148 88.6551 81.9078C88.8088 81.5009 89.0465 81.1308 89.3525 80.8217C89.6586 80.5126 90.0263 80.2713 90.4317 80.1135C90.8372 79.9558 91.2712 79.8851 91.7058 79.9061C92.1403 79.927 92.5655 80.0391 92.9539 80.2352C93.3422 80.4312 93.685 80.7067 93.96 81.0438C94.2349 81.381 94.4358 81.7722 94.5497 82.192L104.078 106.891C104.436 107.687 104.463 108.593 104.154 109.409C103.845 110.225 103.225 110.885 102.43 111.245Z" fill="#0D6E20"/>
<path opacity="0.25" d="M43.7861 47.1738L47.6182 95.8788L110.698 127.705L121.426 86.3734L43.7861 47.1738ZM66.5026 94.3356C65.6721 94.5962 64.7723 94.5184 63.9989 94.1191C63.2254 93.7198 62.6409 93.0314 62.3723 92.2034L52.8668 67.549C52.6669 67.1626 52.5506 66.7385 52.5253 66.3042C52.5001 65.8699 52.5665 65.4351 52.7202 65.0282C52.874 64.6212 53.1116 64.2512 53.4177 63.9421C53.7238 63.6329 54.0915 63.3917 54.4969 63.2339C54.9023 63.0762 55.3364 63.0055 55.7709 63.0264C56.2054 63.0474 56.6307 63.1595 57.0191 63.3555C57.4074 63.5515 57.7502 63.8271 58.0251 64.1642C58.3001 64.5013 58.501 64.8925 58.6148 65.3124L68.1204 89.9892C68.4779 90.7807 68.5086 91.6813 68.2056 92.4952C67.9026 93.3091 67.2906 93.9705 66.5026 94.3356ZM84.4626 102.79C83.6331 103.05 82.7343 102.972 81.9621 102.573C81.1898 102.173 80.6067 101.485 80.3398 100.658L70.8342 75.9808C70.6343 75.5944 70.518 75.1703 70.4928 74.736C70.4675 74.3017 70.5339 73.867 70.6877 73.4601C70.8414 73.0531 71.079 72.683 71.3851 72.3739C71.6912 72.0648 72.0589 71.8235 72.4643 71.6658C72.8697 71.508 73.3038 71.4374 73.7383 71.4583C74.1729 71.4793 74.5981 71.5914 74.9865 71.7874C75.3748 71.9834 75.7176 72.2589 75.9925 72.5961C76.2675 72.9332 76.4684 73.3244 76.5823 73.7443L86.0878 98.4211C86.2691 98.8145 86.3709 99.2398 86.3872 99.6726C86.4036 100.105 86.3343 100.537 86.1832 100.943C86.0322 101.349 85.8025 101.721 85.5072 102.038C85.2119 102.355 84.8569 102.611 84.4626 102.79ZM102.43 111.244C101.6 111.504 100.7 111.425 99.9275 111.024C99.1551 110.623 98.5726 109.933 98.3072 109.104L88.8016 84.4276C88.6018 84.0412 88.4854 83.6171 88.4602 83.1828C88.435 82.7485 88.5013 82.3138 88.6551 81.9068C88.8088 81.4999 89.0465 81.1298 89.3525 80.8207C89.6586 80.5116 90.0263 80.2703 90.4317 80.1126C90.8372 79.9548 91.2712 79.8841 91.7058 79.9051C92.1403 79.926 92.5655 80.0382 92.9539 80.2342C93.3422 80.4302 93.685 80.7057 93.96 81.0429C94.2349 81.38 94.4358 81.7712 94.5497 82.191L104.078 106.89C104.436 107.686 104.463 108.592 104.154 109.408C103.845 110.224 103.225 110.884 102.43 111.244Z" fill="white"/>
<path d="M121.424 86.3364L157.791 62.5244L147.063 103.849L110.696 127.668L121.424 86.3364Z" fill="#0D6E20"/>
<path opacity="0.2" d="M121.424 86.3364L157.791 62.5244L147.063 103.849L110.696 127.668L121.424 86.3364Z" fill="white"/>
</svg>
