<svg width="210" height="210" viewBox="0 0 210 210" fill="none" xmlns="http://www.w3.org/2000/svg"><path d="m125.14 199.439 44.793-25.734c5.423-3.113 5.423-8.162 0-11.241l-75.458-43.356c-5.423-3.113-14.207-3.113-19.621 0L30.06 144.842c-5.413 3.113-5.413 8.162 0 11.241l75.468 43.356c5.413 3.113 14.198 3.113 19.612 0Z" fill="#E0E0E0"/><path d="M111.794 184.304a12.169 12.169 0 0 0-1.92-5.311 12.165 12.165 0 0 0-4.108-3.874c-1.644-.87-3.07-.792-4.027-.061l-3.584 2.322 8.62 12.916 3.549-2.313c.991-.626 1.574-1.896 1.47-3.679Z" fill="#455A64"/><path d="M102.061 177.545a12.125 12.125 0 0 1 6.019 9.185c.2 3.479-2.175 5.053-5.306 3.479a12.173 12.173 0 0 1-6.02-9.185c-.19-3.505 2.184-5.062 5.307-3.479Z" fill="#37474F"/><path d="M100.547 182.903c-.078-1.365.714-2.035 1.74-1.504a4.416 4.416 0 0 1 2.053 3.479c.078 1.365-.714 2.035-1.74 1.504a4.456 4.456 0 0 1-2.053-3.479Z" fill="#263238"/><path d="M108.158 171.344s.348 6.262-2.505 8.637c-.539.452-1.122.774-1.453 1.087-.73.678-.156 1.809.792 2.253 1.383.643 8.593-1.74 11.359-7.828l-8.193-4.149Z" fill="#0D6E20"/><path opacity=".6" d="M108.158 171.344s.348 6.262-2.505 8.637c-.539.452-1.122.774-1.453 1.087-.73.678-.156 1.809.792 2.253 1.383.643 8.593-1.74 11.359-7.828l-8.193-4.149Z" fill="#000"/><path d="M105.409 173.135s.348 6.262-2.505 8.637c-.539.452-1.122.774-1.453 1.087-.73.678-.156 1.809.792 2.253 1.383.643 8.593-1.74 11.359-7.828l-8.193-4.149Z" fill="#0D6E20"/><path opacity=".4" d="M105.409 173.135s.348 6.262-2.505 8.637c-.539.452-1.122.774-1.453 1.087-.73.678-.156 1.809.792 2.253 1.383.643 8.593-1.74 11.359-7.828l-8.193-4.149Z" fill="#000"/><path d="M102.382 183.268a1.145 1.145 0 0 1 .583.869c0 .34-.209.487-.513.331a1.143 1.143 0 0 1-.574-.87c-.018-.339.209-.487.504-.33Z" fill="#263238"/><path d="M150.786 158.298a12.187 12.187 0 0 0-1.915-5.31 12.194 12.194 0 0 0-4.104-3.875c-1.644-.826-3.07-.783-4.036-.061l-3.575 2.322 8.62 12.917 3.54-2.314c.992-.626 1.566-1.896 1.47-3.679Z" fill="#455A64"/><path d="M141.054 151.539a12.175 12.175 0 0 1 6.019 9.185c.2 3.479-2.175 5.054-5.306 3.479a12.174 12.174 0 0 1-6.019-9.193c-.2-3.497 2.201-5.045 5.306-3.471Z" fill="#37474F"/><path d="M139.497 156.904c-.079-1.374.713-2.044 1.739-1.513a4.454 4.454 0 0 1 2.053 3.479c.078 1.365-.713 2.044-1.74 1.504a4.426 4.426 0 0 1-2.052-3.47Z" fill="#263238"/><path d="M146.699 146.258s.8 5.34-2.053 7.723c-.539.444-1.122.766-1.453 1.079-.73.678-.156 1.818.792 2.253 1.383.652 8.141-.801 10.907-6.959l-8.193-4.096Z" fill="#0D6E20"/><path opacity=".6" d="M146.699 146.258s.8 5.34-2.053 7.723c-.539.444-1.122.766-1.453 1.079-.73.678-.156 1.818.792 2.253 1.383.652 8.141-.801 10.907-6.959l-8.193-4.096Z" fill="#000"/><path d="M144.402 147.137s.348 6.253-2.505 8.637c-.539.443-1.122.765-1.461 1.078-.722.679-.148 1.818.8 2.262 1.383.643 8.593-1.74 11.359-7.828l-8.193-4.149Z" fill="#0D6E20"/><path opacity=".4" d="M144.402 147.137s.348 6.253-2.505 8.637c-.539.443-1.122.765-1.461 1.078-.722.679-.148 1.818.8 2.262 1.383.643 8.593-1.74 11.359-7.828l-8.193-4.149Z" fill="#000"/><path d="M141.375 157.262a1.142 1.142 0 0 1 .574.87c0 .339-.209.487-.505.339a1.152 1.152 0 0 1-.574-.87c-.026-.339.209-.513.505-.339Z" fill="#263238"/><path d="M73.244 165.089a12.179 12.179 0 0 0-6.02-9.194c-1.634-.826-3.06-.783-4.026-.052l-3.584 2.322 8.62 12.916 3.549-2.322c.991-.617 1.565-1.887 1.46-3.67Z" fill="#455A64"/><path d="M63.511 158.332a12.092 12.092 0 0 1 6.019 9.193c.2 3.48-2.175 5.054-5.297 3.48a12.097 12.097 0 0 1-6.02-9.185c-.2-3.514 2.175-5.071 5.298-3.488Z" fill="#37474F"/><path d="M61.955 163.688c-.079-1.365.721-2.035 1.74-1.504a4.435 4.435 0 0 1 2.06 3.479c.079 1.365-.721 2.035-1.74 1.505a4.462 4.462 0 0 1-2.06-3.48Z" fill="#263238"/><path d="M69.609 152.129s.356 6.254-2.505 8.637c-.54.452-1.114.774-1.453 1.087-.722.678-.156 1.809.8 2.253 1.383.643 8.594-1.74 11.36-7.828l-8.202-4.149Z" fill="#0D6E20"/><path opacity=".6" d="M69.609 152.129s.356 6.254-2.505 8.637c-.54.452-1.114.774-1.453 1.087-.722.678-.156 1.809.8 2.253 1.383.643 8.594-1.74 11.36-7.828l-8.202-4.149Z" fill="#000"/><path d="M66.86 153.922s.356 6.262-2.505 8.637c-.54.452-1.122.774-1.453 1.087-.722.678-.156 1.809.8 2.253 1.383.643 8.594-1.74 11.36-7.828l-8.202-4.149Z" fill="#0D6E20"/><path opacity=".4" d="M66.86 153.922s.356 6.262-2.505 8.637c-.54.452-1.122.774-1.453 1.087-.722.678-.156 1.809.8 2.253 1.383.643 8.594-1.74 11.36-7.828l-8.202-4.149Z" fill="#000"/><path d="M63.842 164.046a1.145 1.145 0 0 1 .574.869c0 .34-.208.487-.513.331a1.146 1.146 0 0 1-.574-.87c-.017-.33.209-.478.513-.33Z" fill="#263238"/><path d="M113.794 138.527a12.125 12.125 0 0 0-6.019-9.185c-1.644-.87-3.071-.783-4.027-.061l-3.584 2.323 8.62 12.916 3.548-2.314c.992-.626 1.566-1.896 1.462-3.679Z" fill="#455A64"/><path d="M104.026 131.769a12.115 12.115 0 0 1 6.089 9.184c.2 3.479-2.175 5.054-5.306 3.479a12.171 12.171 0 0 1-6.019-9.193c-.226-3.488 2.149-5.045 5.236-3.47Z" fill="#37474F"/><path d="M102.504 137.135c-.078-1.365.722-2.044 1.74-1.513a4.469 4.469 0 0 1 2.061 3.479c.07 1.366-.722 2.044-1.783 1.505a4.46 4.46 0 0 1-2.018-3.471Z" fill="#263238"/><path d="M110.158 125.576s.348 6.254-2.505 8.637c-.539.444-1.122.765-1.453 1.079-.73.678-.156 1.817.792 2.261 1.391.644 8.602-1.74 11.359-7.828l-8.193-4.149Z" fill="#0D6E20"/><path opacity=".6" d="M110.158 125.576s.348 6.254-2.505 8.637c-.539.444-1.122.765-1.453 1.079-.73.678-.156 1.817.792 2.261 1.391.644 8.602-1.74 11.359-7.828l-8.193-4.149Z" fill="#000"/><path d="M107.41 127.367s.348 6.254-2.505 8.637c-.539.444-1.122.765-1.453 1.079-.73.678-.156 1.817.792 2.261 1.383.644 8.593-1.74 11.359-7.828l-8.193-4.149Z" fill="#0D6E20"/><path opacity=".4" d="M107.41 127.367s.348 6.254-2.505 8.637c-.539.444-1.122.765-1.453 1.079-.73.678-.156 1.817.792 2.261 1.383.644 8.593-1.74 11.359-7.828l-8.193-4.149Z" fill="#000"/><path d="M104.383 137.491a1.155 1.155 0 0 1 .583.87c0 .339-.209.487-.513.339a1.188 1.188 0 0 1-.574-.87c-.018-.339.209-.487.504-.339Z" fill="#263238"/><path d="M125.501 181.381a11.713 11.713 0 0 1-5.801-1.044l-55.162-27.598c-3.105-1.565-6.593-5.627-6.81-9.472l-2.915-51.56 2.87-.156 2.906 51.621c.148 2.609 2.888 5.888 5.219 7.071l55.162 27.563a9.83 9.83 0 0 0 8.628-.496l30.582-17.699c.818-.54 1.287-1.183 1.253-1.74-.035-.557-.54-1.087-1.409-1.531l-55.067-31.964c-3.096-1.557-6.576-5.628-6.793-9.481l-2.079-35.217 2.862-.156 2.096 35.234c.148 2.609 2.879 5.897 5.219 7.071l55.058 31.965c1.843.93 2.905 2.322 3 3.931a4.963 4.963 0 0 1-2.548 4.288l-30.582 17.691a11.773 11.773 0 0 1-5.689 1.679Z" fill="#0D6E20"/><path d="M125.501 181.381a11.713 11.713 0 0 1-5.801-1.044l-55.162-27.598c-3.105-1.565-6.593-5.627-6.81-9.472l-2.915-51.56 2.87-.156 2.906 51.621c.148 2.609 2.888 5.888 5.219 7.071l55.162 27.563a9.83 9.83 0 0 0 8.628-.496l30.582-17.699c.818-.54 1.287-1.183 1.253-1.74-.035-.557-.54-1.087-1.409-1.531l-55.067-31.964c-3.096-1.557-6.576-5.628-6.793-9.481l-2.079-35.217 2.862-.156 2.096 35.234c.148 2.609 2.879 5.897 5.219 7.071l55.058 31.965c1.843.93 2.905 2.322 3 3.931a4.963 4.963 0 0 1-2.548 4.288l-30.582 17.691a11.773 11.773 0 0 1-5.689 1.679Z" fill="#000"/><path d="M46.185 39.667a9.568 9.568 0 0 1 3.662-10.168L80.486 9.11c3.105-2.036 6.506-.627 7.602 2.93l5.098 15.455L90.889 29l-4.94-14.385a2.61 2.61 0 0 0-4.097-1.435L52.117 33.074a6.27 6.27 0 0 0-2.4 6.558l4 13.63-2.757 1.809-4.775-15.404Z" fill="#0D6E20"/><path d="M46.312 39.62a9.445 9.445 0 0 1 .26-5.642 9.566 9.566 0 0 1 3.442-4.51l30.508-20.53c3.139-2.033 6.577-.626 7.685 2.926l5.115 15.634L91 29l-4.956-14.566a2.595 2.595 0 0 0-.612-1.113 2.64 2.64 0 0 0-1.07-.697 2.668 2.668 0 0 0-2.46.377L52.31 33.038a6.27 6.27 0 0 0-2.222 2.91 6.189 6.189 0 0 0-.205 3.638l4.045 13.609L51.139 55l-4.828-15.38Z" fill="#000"/><path d="M51.082 55.036 93.51 27.238l4.471 56.78-42.437 27.797-4.462-56.779Z" fill="#0D6E20"/><path d="m93.51 27.238 4.471 56.788 73.594 37.131 12.516-48.212-90.58-45.707Zm26.503 55.048a3.843 3.843 0 0 1-4.81-2.496l-11.098-28.816a3.63 3.63 0 0 1-.399-1.452 3.632 3.632 0 0 1 1.042-2.756 3.617 3.617 0 0 1 6.063 1.6l11.098 28.789a3.85 3.85 0 0 1-1.896 5.131Zm20.962 9.864a3.86 3.86 0 0 1-4.818-2.497l-11.09-28.79a3.616 3.616 0 0 1 1.902-5.034 3.616 3.616 0 0 1 4.804 2.425l11.09 28.79a3.857 3.857 0 0 1-1.888 5.08v.026Zm20.954 9.854a3.845 3.845 0 0 1-4.81-2.487l-11.09-28.79a3.616 3.616 0 0 1 1.902-5.034 3.618 3.618 0 0 1 4.804 2.425l11.09 28.79a3.837 3.837 0 0 1-1.896 5.07v.026Z" fill="#0D6E20"/><path opacity=".55" d="m93.51 27.238 4.471 56.788 73.594 37.131 12.516-48.212-90.58-45.707Zm26.503 55.048a3.843 3.843 0 0 1-4.81-2.496l-11.098-28.816a3.63 3.63 0 0 1-.399-1.452 3.632 3.632 0 0 1 1.042-2.756 3.617 3.617 0 0 1 6.063 1.6l11.098 28.789a3.85 3.85 0 0 1-1.896 5.131Zm20.962 9.864a3.86 3.86 0 0 1-4.818-2.497l-11.09-28.79a3.616 3.616 0 0 1 1.902-5.034 3.616 3.616 0 0 1 4.804 2.425l11.09 28.79a3.857 3.857 0 0 1-1.888 5.08v.026Zm20.954 9.854a3.845 3.845 0 0 1-4.81-2.487l-11.09-28.79a3.616 3.616 0 0 1 1.902-5.034 3.618 3.618 0 0 1 4.804 2.425l11.09 28.79a3.837 3.837 0 0 1-1.896 5.07v.026Z" fill="#fff"/><path d="m97.981 84.018-42.437 27.798 73.602 37.13 42.428-27.789-73.593-37.14Z" fill="#0D6E20"/><path opacity=".1" d="m97.981 84.018-42.437 27.798 73.602 37.13 42.428-27.789-73.593-37.14Z" fill="#000"/><path d="m51.082 55.037 4.47 56.823 73.594 37.13 12.516-48.22-90.58-45.733Zm26.503 55.022a3.854 3.854 0 0 1-4.819-2.487l-11.09-28.764a3.617 3.617 0 0 1 3.388-5.276 3.619 3.619 0 0 1 3.318 2.667l11.09 28.789a3.845 3.845 0 0 1-1.887 5.071Zm20.953 9.863a3.843 3.843 0 0 1-4.81-2.487l-11.09-28.79a3.617 3.617 0 0 1 3.388-5.276 3.619 3.619 0 0 1 3.318 2.667l11.09 28.79a3.823 3.823 0 0 1 .111 2.942 3.835 3.835 0 0 1-2.007 2.154Zm20.962 9.864a3.846 3.846 0 0 1-4.81-2.497l-11.09-28.79a3.613 3.613 0 0 1-.171-2.94 3.63 3.63 0 0 1 2.073-2.093 3.616 3.616 0 0 1 4.804 2.425l11.116 28.815a3.842 3.842 0 0 1-1.922 5.08Z" fill="#0D6E20"/><path opacity=".65" d="m51.082 55.037 4.47 56.823 73.594 37.13 12.516-48.22-90.58-45.733Zm26.503 55.022a3.854 3.854 0 0 1-4.819-2.487l-11.09-28.764a3.617 3.617 0 0 1 3.388-5.276 3.619 3.619 0 0 1 3.318 2.667l11.09 28.789a3.845 3.845 0 0 1-1.887 5.071Zm20.953 9.863a3.843 3.843 0 0 1-4.81-2.487l-11.09-28.79a3.617 3.617 0 0 1 3.388-5.276 3.619 3.619 0 0 1 3.318 2.667l11.09 28.79a3.823 3.823 0 0 1 .111 2.942 3.835 3.835 0 0 1-2.007 2.154Zm20.962 9.864a3.846 3.846 0 0 1-4.81-2.497l-11.09-28.79a3.613 3.613 0 0 1-.171-2.94 3.63 3.63 0 0 1 2.073-2.093 3.616 3.616 0 0 1 4.804 2.425l11.116 28.815a3.842 3.842 0 0 1-1.922 5.08Z" fill="#fff"/><path d="m141.662 100.726 42.428-27.78-12.516 48.211-42.428 27.789 12.516-48.22Z" fill="#0D6E20"/><path opacity=".2" d="m141.662 100.726 42.428-27.78-12.516 48.211-42.428 27.789 12.516-48.22Z" fill="#fff"/></svg>