<svg width="22" height="14" viewBox="0 0 22 14" fill="none" xmlns="http://www.w3.org/2000/svg"><path d="M20.293 13.707a1 1 0 0 0 1.414-1.414l-1.414 1.414ZM1 0a1 1 0 1 0 0 2V0Zm6 2a1 1 0 1 0 0-2v2ZM1 5a1 1 0 0 0 0 2V5Zm4 2a1 1 0 1 0 0-2v2Zm-4 3a1 1 0 1 0 0 2v-2Zm6 2a1 1 0 1 0 0-2v2Zm10.882-6.059a3.941 3.941 0 0 1-3.94 3.941v2a5.941 5.941 0 0 0 5.94-5.94h-2Zm-3.94 3.941A3.941 3.941 0 0 1 10 5.942H8a5.941 5.941 0 0 0 5.941 5.94v-2ZM10 5.942A3.941 3.941 0 0 1 13.941 2V0A5.941 5.941 0 0 0 8 5.941h2ZM13.941 2a3.941 3.941 0 0 1 3.941 3.941h2A5.941 5.941 0 0 0 13.942 0v2Zm2.822 8.178 3.53 3.53 1.414-1.415-3.53-3.53-1.413 1.415ZM1 2h6V0H1v2Zm0 5h4V5H1v2Zm0 5h6v-2H1v2Z" fill="#00201E"/></svg>