<svg width="24" height="24" viewBox="0 0 24 24" fill="none" xmlns="http://www.w3.org/2000/svg">
<path d="M20.2804 7.40029L16.2804 4.06695C15.5387 3.44887 14.4613 3.44887 13.7196 4.06695L10.2804 6.933C9.53868 7.55108 8.46132 7.55108 7.71963 6.933L4.64018 4.3668C3.98886 3.82403 3 4.28718 3 5.13502V15.0632C3 15.6568 3.26365 16.2197 3.71963 16.5997L7.71963 19.933C8.09048 20.242 8.54524 20.3966 9 20.3966M9 7.99998V20M21 14C21 16.2091 18 20 17 20C16 20 13 16.2091 13 14C13 11.7908 14.7909 9.99998 17 9.99998C19.2091 9.99998 21 11.7908 21 14Z" stroke="#00201E" stroke-width="2" stroke-linecap="round"/>
</svg>
