<svg width="20" height="20" viewBox="0 0 20 20" fill="none" xmlns="http://www.w3.org/2000/svg"><path d="m1.456 5.24.858.514-.858-.514Zm1.612-2.686.857.514-.857-.514Zm13.864 0-.857.514.857-.514Zm1.612 2.686-.858.514.858-.514Zm-3.068-4.145-.304.952.304-.952Zm.712.403.66-.75-.66.75Zm-12.376 0 .66.751-.66-.75Zm.712-.403L4.22.142l.304.953Zm14.45 5.136-.987.162.987-.162Zm-.115-.416.929-.369-.93.37Zm-.951 12.967-.454-.891.454.891Zm.874-.874-.891-.454.891.454Zm-17.564 0-.891.454.891-.454Zm.874.874.454-.891-.454.891ZM1.026 6.232.04 6.07l.987.161Zm.115-.417-.929-.369.93.37ZM2 5a1 1 0 0 0 0 2V5Zm16 2a1 1 0 1 0 0-2v2ZM8 9a1 1 0 1 0 0 2V9Zm4 2a1 1 0 1 0 0-2v2ZM9 6a1 1 0 1 0 2 0H9Zm2-5a1 1 0 1 0-2 0h2ZM0 6.886V15.8h2V6.886H0ZM4.2 20h11.6v-2H4.2v2ZM20 15.8V6.886h-2V15.8h2ZM2.314 5.754l1.611-2.686L2.21 2.04.6 4.725l1.715 1.03ZM5.812 2h8.376V0H5.812v2Zm10.263 1.068 1.611 2.686 1.715-1.029L17.79 2.04l-1.715 1.03ZM14.188 2c.727 0 .87.011.984.047L15.78.142C15.3-.01 14.783 0 14.188 0v2Zm3.602.04c-.306-.51-.563-.96-.941-1.293L15.528 2.25c.09.079.173.196.547.82l1.715-1.03Zm-2.618.007a1 1 0 0 1 .356.202l1.32-1.502A3 3 0 0 0 15.78.142l-.608 1.905ZM3.925 3.068c.374-.623.458-.74.547-.819L3.152.747c-.38.333-.636.782-.942 1.292l1.715 1.03ZM5.812 0C5.217 0 4.7-.011 4.22.142l.608 1.905c.113-.036.257-.047.984-.047V0Zm-1.34 2.249a1 1 0 0 1 .356-.202L4.22.142a3 3 0 0 0-1.07.605L4.472 2.25ZM20 6.886c0-.298.003-.557-.04-.816l-1.973.323c.01.061.013.132.013.493h2Zm-2.314-1.132c.186.31.22.372.243.43l1.859-.738c-.097-.244-.233-.465-.387-.72l-1.715 1.028Zm2.275.316a3.006 3.006 0 0 0-.173-.624l-1.859.739a.987.987 0 0 1 .058.208l1.974-.323ZM15.8 20c.544 0 1.011 0 1.395-.03.395-.033.789-.104 1.167-.297l-.908-1.782c-.05.025-.15.063-.422.085C16.75 18 16.377 18 15.8 18v2Zm2.2-4.2c0 .577 0 .949-.024 1.232-.022.272-.06.372-.085.422l1.782.908c.193-.378.264-.772.296-1.167.032-.384.031-.851.031-1.395h-2Zm.362 3.873a3 3 0 0 0 1.311-1.311l-1.782-.908a1 1 0 0 1-.437.437l.908 1.782ZM0 15.8c0 .544 0 1.011.03 1.395.033.395.104.789.297 1.167l1.782-.908c-.025-.05-.063-.15-.085-.422C2 16.75 2 16.377 2 15.8H0ZM4.2 18c-.577 0-.949 0-1.232-.024-.272-.022-.373-.06-.422-.085l-.908 1.782c.378.193.772.264 1.167.296.384.032.851.031 1.395.031v-2Zm-3.873.362a3 3 0 0 0 1.311 1.311l.908-1.782a1 1 0 0 1-.437-.437l-1.782.908ZM2 6.886c0-.361.003-.432.013-.493L.04 6.07c-.042.259-.039.518-.039.816h2ZM.599 4.726c-.154.255-.29.476-.387.72l1.859.739c.023-.059.057-.12.243-.43L.599 4.724Zm1.414 1.667a.987.987 0 0 1 .058-.208L.212 5.446a3 3 0 0 0-.173.624l1.974.323ZM2 7h16V5H2v2Zm6 4h4V9H8v2Zm3-5V1H9v5h2Z" fill="#00201E"/></svg>