<svg width="24" height="24" viewBox="0 0 24 24" fill="none" xmlns="http://www.w3.org/2000/svg">
<path d="M15 13V12.5C15 11.6716 14.308 11 13.4543 11H8.30182M9.84756 13L8.15091 11.3536C7.9497 11.1583 7.9497 10.8417 8.15091 10.6464L9.84756 9M6 2H18C19.1046 2 20 2.89543 20 4V19.7639C20 21.2507 18.4354 22.2177 17.1056 21.5528L16.8944 21.4472C16.3314 21.1657 15.6686 21.1657 15.1056 21.4472L12.8944 22.5528C12.3314 22.8343 11.6686 22.8343 11.1056 22.5528L8.89443 21.4472C8.33137 21.1657 7.66863 21.1657 7.10557 21.4472L6.89443 21.5528C5.56462 22.2177 4 21.2507 4 19.7639V4C4 2.89543 4.89543 2 6 2Z" stroke="#00201E" stroke-width="2" stroke-linecap="round"/>
</svg>
