<svg width="18" height="22" viewBox="0 0 18 22" fill="none" xmlns="http://www.w3.org/2000/svg"><path d="M13.8 17c1.12 0 1.68 0 2.108-.218a2 2 0 0 0 .874-.874C17 15.48 17 14.92 17 13.8V4.2c0-1.12 0-1.68-.218-2.108a2 2 0 0 0-.874-.874C15.48 1 14.92 1 13.8 1H8.2c-1.12 0-1.68 0-2.108.218a2 2 0 0 0-.874.874C5 2.52 5 3.08 5 4.2M4.2 21h5.6c1.12 0 1.68 0 2.108-.218a2 2 0 0 0 .874-.874C13 19.48 13 18.92 13 17.8V8.2c0-1.12 0-1.68-.218-2.108a2 2 0 0 0-.874-.874C11.48 5 10.92 5 9.8 5H4.2c-1.12 0-1.68 0-2.108.218a2 2 0 0 0-.874.874C1 6.52 1 7.08 1 8.2v9.6c0 1.12 0 1.68.218 2.108a2 2 0 0 0 .874.874C2.52 21 3.08 21 4.2 21Z" stroke="#0D6E20" stroke-width="2"/><path d="M5 10h4m-4 3h4m-4 3h2" stroke="#0D6E20" stroke-width="2" stroke-linecap="round"/></svg>