<svg width="32" height="32" viewBox="0 0 32 32" fill="none" xmlns="http://www.w3.org/2000/svg">
<circle cx="16" cy="16" r="16" fill="#E1F7E0"/>
<path d="M15.3403 10.7813C14.9451 10.3585 14.2747 10.3585 13.8794 10.7813L9.63855 15.317C9.27916 15.7014 9.27916 16.2986 9.63855 16.683L13.8794 21.2187C14.2747 21.6415 14.9451 21.6415 15.3403 21.2187L15.3614 21.1962C15.7208 20.8118 15.7208 20.2146 15.3614 19.8302L12.7152 17H22C22.5523 17 23 16.5523 23 16C23 15.4477 22.5523 15 22 15H12.7152L15.3614 12.1698C15.7208 11.7854 15.7208 11.1882 15.3614 10.8038L15.3403 10.7813Z" fill="#0D6E20"/>
</svg>
