<svg width="24" height="24" viewBox="0 0 24 24" fill="none" xmlns="http://www.w3.org/2000/svg">
<path d="M8 9C7.44772 9 7 9.44772 7 10C7 10.5523 7.44772 11 8 11V9ZM10 11C10.5523 11 11 10.5523 11 10C11 9.44772 10.5523 9 10 9V11ZM8 5C7.44772 5 7 5.44772 7 6C7 6.55228 7.44772 7 8 7V5ZM14 7C14.5523 7 15 6.55228 15 6C15 5.44772 14.5523 5 14 5V7ZM5.07805 19.7748L5.53903 18.8874H5.53902L5.07805 19.7748ZM4.22517 18.9219L3.33776 19.3829L3.33776 19.3829L4.22517 18.9219ZM16.9219 2.22517L16.461 3.11259L16.461 3.11259L16.9219 2.22517ZM17.7748 3.07805L16.8874 3.53902V3.53903L17.7748 3.07805ZM5.07805 2.22517L4.61708 1.33776L5.07805 2.22517ZM4.22517 3.07805L3.33776 2.61708L4.22517 3.07805ZM17 8C17 8.55228 17.4477 9 18 9C18.5523 9 19 8.55228 19 8H17ZM8 21C8.55228 21 9 20.5523 9 20C9 19.4477 8.55228 19 8 19V21ZM8 13C7.44772 13 7 13.4477 7 14C7 14.5523 7.44772 15 8 15V13ZM10 15C10.5523 15 11 14.5523 11 14C11 13.4477 10.5523 13 10 13V15ZM19.7582 17.2252L20.0932 16.2829L19.7582 17.2252ZM18.1046 16.6372L18.4396 15.695L18.1046 16.6372ZM17.7978 13.6029L18.5978 14.2029L18.5978 14.2029L17.7978 13.6029ZM18.1252 13.1663L17.3252 12.5663L17.3252 12.5663L18.1252 13.1663ZM13.8747 13.1662L14.6747 12.5663L14.6747 12.5663L13.8747 13.1662ZM14.2022 13.6029L13.4021 14.2029L13.4021 14.2029L14.2022 13.6029ZM13.8952 16.6372L13.5602 15.695H13.5602L13.8952 16.6372ZM12.2418 17.2251L12.5768 18.1674L12.2418 17.2251ZM8 11H10V9H8V11ZM8 7H14V5H8V7ZM7.22 3H14.78V1H7.22V3ZM5 16.78V5.22H3V16.78H5ZM7.22 19C6.63372 19 6.25517 18.9992 5.96722 18.9753C5.69125 18.9524 5.58924 18.9135 5.53903 18.8874L4.61708 20.6622C5.00034 20.8613 5.39981 20.935 5.8017 20.9684C6.19162 21.0008 6.66729 21 7.22 21V19ZM3 16.78C3 17.3327 2.9992 17.8084 3.03158 18.1983C3.06495 18.6002 3.13867 18.9997 3.33776 19.3829L5.11259 18.461C5.0865 18.4108 5.04763 18.3088 5.02472 18.0328C5.0008 17.7448 5 17.3663 5 16.78H3ZM5.53902 18.8874C5.35638 18.7925 5.20746 18.6436 5.11259 18.461L3.33776 19.3829C3.62239 19.9309 4.06915 20.3776 4.61708 20.6622L5.53902 18.8874ZM14.78 3C15.3663 3 15.7448 3.0008 16.0328 3.02472C16.3088 3.04763 16.4108 3.0865 16.461 3.11259L17.3829 1.33776C16.9997 1.13867 16.6002 1.06495 16.1983 1.03158C15.8084 0.999196 15.3327 1 14.78 1V3ZM19 5.22C19 4.66729 19.0008 4.19162 18.9684 3.8017C18.935 3.39982 18.8613 3.00034 18.6622 2.61708L16.8874 3.53903C16.9135 3.58924 16.9524 3.69125 16.9753 3.96722C16.9992 4.25517 17 4.63372 17 5.22H19ZM16.461 3.11259C16.6436 3.20746 16.7925 3.35638 16.8874 3.53902L18.6622 2.61708C18.3776 2.06915 17.9309 1.62239 17.3829 1.33776L16.461 3.11259ZM7.22 1C6.66729 1 6.19162 0.999196 5.8017 1.03158C5.39981 1.06495 5.00034 1.13867 4.61708 1.33776L5.53903 3.11259C5.58924 3.0865 5.69125 3.04763 5.96722 3.02472C6.25517 3.0008 6.63372 3 7.22 3V1ZM5 5.22C5 4.63372 5.0008 4.25517 5.02472 3.96722C5.04763 3.69125 5.0865 3.58924 5.11259 3.53903L3.33776 2.61708C3.13867 3.00034 3.06495 3.39982 3.03158 3.8017C2.9992 4.19162 3 4.66729 3 5.22H5ZM4.61708 1.33776C4.06915 1.62239 3.62239 2.06915 3.33776 2.61708L5.11259 3.53903C5.20746 3.35638 5.35638 3.20746 5.53903 3.11259L4.61708 1.33776ZM17 5.22V8H19V5.22H17ZM8 19H7.22V21H8V19ZM8 15H10V13H8V15ZM12.816 22H19.184V20H12.816V22ZM20.0932 16.2829L18.4396 15.695L17.7696 17.5794L19.4232 18.1674L20.0932 16.2829ZM18.2499 15.3723V15.2688H16.2499V15.3723H18.2499ZM18.5978 14.2029L18.9252 13.7663L17.3252 12.5663L16.9978 13.0029L18.5978 14.2029ZM17.1492 10H14.8508V12H17.1492V10ZM13.0747 13.7662L13.4021 14.2029L15.0022 13.0029L14.6747 12.5663L13.0747 13.7662ZM13.7499 15.2687V15.3723H15.7499V15.2687H13.7499ZM13.5602 15.695L11.9067 16.2829L12.5768 18.1674L14.2303 17.5794L13.5602 15.695ZM11.9067 16.2829C10.7357 16.6993 10 17.8396 10 19.0629H12C12 18.6185 12.2647 18.2783 12.5768 18.1674L11.9067 16.2829ZM13.7499 15.3723C13.7499 15.5568 13.6411 15.6663 13.5602 15.695L14.2303 17.5794C15.1702 17.2452 15.7499 16.3357 15.7499 15.3723H13.7499ZM13.4021 14.2029C13.6236 14.4981 13.7499 14.8739 13.7499 15.2687H15.7499C15.7499 14.4526 15.49 13.6534 15.0022 13.0029L13.4021 14.2029ZM14.8508 10C13.8731 10 13.1426 10.6123 12.8125 11.3449C12.4835 12.075 12.5069 13.0092 13.0747 13.7662L14.6747 12.5663C14.5877 12.4502 14.5752 12.3013 14.6359 12.1665C14.6955 12.0343 14.7804 12 14.8508 12V10ZM18.9252 13.7663C19.493 13.0093 19.5165 12.0751 19.1875 11.345C18.8574 10.6123 18.1269 10 17.1492 10V12C17.2196 12 17.3045 12.0343 17.3641 12.1666C17.4248 12.3014 17.4123 12.4503 17.3252 12.5663L18.9252 13.7663ZM18.2499 15.2688C18.2499 14.8739 18.3763 14.4981 18.5978 14.2029L16.9978 13.0029C16.5099 13.6533 16.2499 14.4526 16.2499 15.2688H18.2499ZM18.4396 15.695C18.3587 15.6662 18.2499 15.5568 18.2499 15.3723H16.2499C16.2499 16.3357 16.8297 17.2452 17.7696 17.5794L18.4396 15.695ZM22 19.0629C22 17.8396 21.2643 16.6993 20.0932 16.2829L19.4232 18.1674C19.7353 18.2783 20 18.6185 20 19.0629H22ZM19.184 22C20.799 22 22 20.6232 22 19.0629H20C20 19.6422 19.5748 20 19.184 20V22ZM12.816 20C12.4252 20 12 19.6422 12 19.0629H10C10 20.6232 11.201 22 12.816 22V20Z" fill="#158B2D"/>
</svg>
