<svg width="16" height="16" viewBox="0 0 16 16" fill="none" xmlns="http://www.w3.org/2000/svg"><path d="M14.293 15.707a1 1 0 0 0 1.414-1.414l-1.414 1.414Zm-1.116-8.119a5.588 5.588 0 0 1-5.589 5.589v2a7.588 7.588 0 0 0 7.589-7.589h-2Zm-5.589 5.589A5.588 5.588 0 0 1 2 7.588H0a7.588 7.588 0 0 0 7.588 7.589v-2ZM2 7.588A5.588 5.588 0 0 1 7.588 2V0A7.588 7.588 0 0 0 0 7.588h2ZM7.588 2a5.588 5.588 0 0 1 5.589 5.588h2A7.588 7.588 0 0 0 7.588 0v2Zm3.999 11.001 2.706 2.706 1.414-1.414-2.706-2.706-1.414 1.414Z" fill="#0D6E20"/></svg>