<svg width="24" height="24" viewBox="0 0 24 24" fill="none" xmlns="http://www.w3.org/2000/svg">
<circle cx="12" cy="12" r="11" fill="#E1F7E0"/>
<path fill-rule="evenodd" clip-rule="evenodd" d="M16.7206 7.27934C16.3482 6.90689 15.7443 6.90689 15.3719 7.27934L12 10.6512L8.6281 7.27935C8.25565 6.9069 7.65179 6.9069 7.27934 7.27935C6.90689 7.6518 6.90689 8.25566 7.27934 8.62811L10.6512 12L7.27934 15.3719C6.90689 15.7443 6.90689 16.3482 7.27934 16.7207C7.65179 17.0931 8.25565 17.0931 8.6281 16.7207L12 13.3488L15.3719 16.7207C15.7443 17.0931 16.3482 17.0931 16.7206 16.7207C17.0931 16.3482 17.0931 15.7444 16.7206 15.3719L13.3487 12L16.7206 8.6281C17.0931 8.25565 17.0931 7.65179 16.7206 7.27934Z" fill="#0D6E20"/>
</svg>
